<svg width="2306" height="1306" xmlns="http://www.w3.org/2000/svg" xmlns:xlink="http://www.w3.org/1999/xlink" xml:space="preserve" overflow="hidden"><defs><linearGradient x1="1647.12" y1="961.081" x2="1647.12" y2="1654.08" gradientUnits="userSpaceOnUse" spreadMethod="reflect" id="fill0"><stop offset="0" stop-color="#696969" stop-opacity="1"/><stop offset="0.5" stop-color="#585858" stop-opacity="1"/><stop offset="1" stop-color="#484848" stop-opacity="1"/></linearGradient><linearGradient x1="1642.17" y1="1230.12" x2="1642.17" y2="1684.12" gradientUnits="userSpaceOnUse" spreadMethod="reflect" id="fill1"><stop offset="0" stop-color="#7FDFFF" stop-opacity="1"/><stop offset="0.5" stop-color="#4CD2FF" stop-opacity="1"/><stop offset="1" stop-color="#1AC6FF" stop-opacity="1"/></linearGradient></defs><g transform="translate(-499 -385)"><g><path d="M1512.39 1654.08C1512.39 1516.29 1345.36 1339.95 1231.12 1303.94L1231.12 1024.72 1420.21 1024.72 1476.02 1038.87 1476.02 1088.37 1522.83 1103.69 1522.83 1144.94 1533.66 1144.94 1533.66 1103.69 1533.66 1088.37 1533.66 1038.87 1533.66 1024.72 1533.66 975.224 1533.66 961.081 1760.57 961.081 1760.57 975.224 1760.57 1024.72 1760.57 1038.87 1760.57 1088.37 1760.57 1103.69 1760.57 1144.94 1771.41 1144.94 1771.41 1103.69 1818.22 1088.37 1818.22 1038.87 1874.03 1024.72 2063.12 1024.72 2063.12 1303.94C1948.88 1339.95 1781.85 1516.29 1781.85 1654.08L1681.31 1654.08C1682.4 1643.3 1683.85 1628.13 1685.17 1611.65 1685.54 1607.02 1685.9 1602.28 1686.23 1597.51 1686.31 1596.44 1686.39 1595.37 1686.46 1594.3 1687.33 1581.66 1688.07 1568.08 1688.68 1555.08 1688.9 1550.26 1689.11 1545.52 1689.3 1540.94 1690.04 1522.56 1690.48 1506.73 1690.58 1498.51 1690.59 1497.4 1690.6 1496.43 1690.6 1495.61L1690.6 1484.37 1690.6 1462.41C1690.6 1462.41 1690.46 1456.01 1690.13 1446.41 1690.08 1444.98 1690.03 1443.49 1689.97 1441.94 1689.82 1437.62 1689.63 1432.83 1689.4 1427.8 1688.83 1415.09 1688.03 1400.83 1686.94 1388.59 1686.85 1387.52 1686.76 1386.44 1686.69 1385.37 1686.39 1380.63 1686.37 1375.86 1686.95 1371.22 1687.57 1366.29 1688.86 1361.49 1691.18 1357.01 1694.96 1349.73 1700.56 1341.24 1708.39 1333.56 1710.03 1331.95 1711.6 1330.37 1713.09 1328.8 1717.73 1323.93 1721.64 1319.23 1724.69 1314.65 1734.39 1300.1 1735.43 1286.67 1723.51 1272.22 1719.72 1267.63 1714.63 1262.94 1708.08 1258.08 1706.37 1256.81 1704.55 1255.52 1702.64 1254.22 1701.6 1253.52 1700.6 1252.75 1699.61 1252 1697.24 1250.2 1694.72 1248.55 1692.18 1247.82 1686.44 1245.05 1682.89 1232.93 1678.09 1232.93 1675.19 1232.93 1671.44 1232.8 1668.28 1233.59 1659.73 1228.37 1647.79 1228.07 1635.18 1235.61 1621.41 1235.61 1616.12 1247.11 1616.05 1258.08L1616.04 1258.23 1616.04 1258.31C1616.04 1262.14 1616.99 1267.56 1618.69 1272.22 1617.81 1271.95 1616.96 1271.94 1616.21 1272.22 1616.09 1272.27 1615.98 1272.32 1615.87 1272.38 1613.51 1273.61 1613.21 1277.67 1615.19 1281.43 1617.18 1285.19 1620.7 1287.24 1623.06 1286 1623.59 1285.72 1624.02 1285.3 1624.34 1284.76 1626.93 1293.01 1632.04 1299.5 1639.01 1302.61L1639.01 1314.65C1637.93 1314.82 1636.96 1315.09 1636.2 1315.37 1634.69 1315.93 1634.21 1317.12 1633.71 1318.39 1633.28 1319.48 1632.83 1320.62 1631.69 1321.48 1628.85 1323.42 1626.1 1324.55 1623.49 1325.62 1621.22 1326.55 1619.05 1327.45 1617 1328.8 1616.68 1329.01 1616.36 1329.23 1616.04 1329.47 1613.4 1331.46 1610.58 1333.55 1607.64 1335.73 1593.45 1346.22 1576.62 1358.66 1565.28 1371.22 1561.01 1375.96 1557.52 1380.7 1555.24 1385.37 1553.65 1388.62 1552.65 1391.84 1552.39 1394.98 1551.33 1407.86 1559.09 1419.33 1567.52 1427.8 1574.68 1434.99 1582.32 1440.03 1585.4 1441.94 1586.3 1442.49 1586.81 1442.78 1586.81 1442.78 1586.81 1442.78 1589.65 1448.56 1592.74 1451.81 1595.18 1454.37 1597.78 1456.82 1599.27 1457.4 1602.2 1458.54 1605.76 1454.99 1606.65 1454.03L1607.09 1437.69C1606.34 1437.22 1604.74 1436.2 1603.43 1435.44 1600.01 1433.43 1595.54 1430.82 1594.49 1429.66 1594.13 1429.05 1593.76 1428.43 1593.36 1427.8 1591.3 1424.5 1588.72 1420.96 1586.16 1417.48 1580.49 1409.74 1574.99 1402.22 1575.76 1398 1576.51 1395.31 1582.88 1390.34 1590.21 1385.37 1598.58 1379.69 1608.22 1374.02 1612.22 1371.73 1611.59 1376 1611.03 1380.6 1610.54 1385.37 1609.09 1399.57 1608.23 1415.25 1607.7 1427.8 1607.55 1431.43 1607.43 1434.8 1607.32 1437.8L1606.86 1453.8 1606.65 1462.41 1606.65 1484.37 1606.65 1495.61C1606.65 1496.43 1606.66 1497.4 1606.67 1498.51 1606.76 1506.73 1607.2 1522.56 1607.95 1540.94 1608.14 1545.52 1608.34 1550.26 1608.57 1555.08 1609.17 1568.08 1609.92 1581.66 1610.78 1594.3 1610.86 1595.37 1610.93 1596.44 1611.01 1597.51 1611.35 1602.28 1611.71 1607.02 1612.08 1611.65 1613.4 1628.13 1614.84 1643.3 1615.93 1654.08L1512.39 1654.08ZM1652.08 1495.61 1645.16 1495.61C1645.16 1495.61 1645.08 1496.64 1644.94 1498.51 1644.47 1505 1643.28 1521.66 1642.13 1540.94 1641.86 1545.54 1641.59 1550.29 1641.33 1555.08 1640.6 1568.54 1639.97 1582.37 1639.66 1594.3 1639.64 1595.37 1639.61 1596.44 1639.59 1597.51 1639.47 1602.29 1639.39 1607.03 1639.34 1611.65 1639.13 1628.21 1639.23 1643.34 1639.37 1654.08L1657.88 1654.08C1658.02 1643.34 1658.11 1628.21 1657.91 1611.65 1657.85 1607.03 1657.77 1602.29 1657.66 1597.51 1657.63 1596.44 1657.61 1595.37 1657.58 1594.3 1657.28 1582.37 1656.64 1568.54 1655.92 1555.08 1655.66 1550.29 1655.38 1545.54 1655.11 1540.94 1653.96 1521.66 1652.77 1505 1652.3 1498.51 1652.16 1496.64 1652.08 1495.61 1652.08 1495.61ZM1661.04 1315.37C1660.28 1315.09 1659.31 1314.82 1658.23 1314.65L1658.23 1302.61C1665.19 1299.51 1670.29 1293.03 1672.89 1284.81 1673.2 1285.32 1673.62 1285.73 1674.14 1286 1676.5 1287.24 1680.02 1285.19 1682.01 1281.43 1683.99 1277.67 1683.69 1273.61 1681.33 1272.38 1681.22 1272.32 1681.11 1272.27 1680.99 1272.22 1680.25 1271.94 1679.42 1271.95 1678.56 1272.21 1680.26 1267.55 1681.2 1262.13 1681.2 1258.31 1681.2 1258.23 1681.2 1258.16 1681.2 1258.08 1681.19 1256.53 1681.07 1255.02 1680.87 1253.56 1682.64 1255.34 1684.32 1256.69 1685.63 1257.16 1685.72 1257.46 1685.78 1257.79 1685.96 1258.08 1687.22 1260.15 1690.65 1262.22 1693.51 1263.94 1694.97 1264.82 1696.28 1265.61 1697.09 1266.27 1699.49 1268.31 1701.65 1270.3 1703.57 1272.22 1720.38 1289.15 1718.02 1301.74 1687.78 1314.65 1686.04 1315.4 1684.2 1316.14 1682.28 1316.89 1675.81 1316.89 1673.09 1319.21 1671.15 1320.87 1669.39 1322.38 1668.27 1323.34 1665.56 1321.48 1664.41 1320.62 1663.96 1319.48 1663.53 1318.39 1663.03 1317.12 1662.56 1315.93 1661.04 1315.37Z" fill="url(#fill0)" fill-rule="evenodd"/><text fill="#3A4455" fill-opacity="1" font-family="Calibri,Calibri_MSFontService,sans-serif" font-style="normal" font-variant="normal" font-weight="400" font-stretch="normal" font-size="52" text-anchor="start" direction="ltr" writing-mode="lr-tb" unicode-bidi="normal" text-decoration="none" transform="matrix(1 0 0 1 589.545 850)">Maybe there is only Batthyány </text><text fill="#3A4455" fill-opacity="1" font-family="Calibri,Calibri_MSFontService,sans-serif" font-style="normal" font-variant="normal" font-weight="400" font-stretch="normal" font-size="52" text-anchor="start" direction="ltr" writing-mode="lr-tb" unicode-bidi="normal" text-decoration="none" transform="matrix(1 0 0 1 641.68 893)">SQUARE in the whole city. </text><text fill="#3A4455" fill-opacity="1" font-family="Calibri,Calibri_MSFontService,sans-serif" font-style="normal" font-variant="normal" font-weight="400" font-stretch="normal" font-size="52" text-anchor="start" direction="ltr" writing-mode="lr-tb" unicode-bidi="normal" text-decoration="none" transform="matrix(1 0 0 1 540.274 935)">Your only option if district or postal </text><text fill="#3A4455" fill-opacity="1" font-family="Calibri,Calibri_MSFontService,sans-serif" font-style="normal" font-variant="normal" font-weight="400" font-stretch="normal" font-size="52" text-anchor="start" direction="ltr" writing-mode="lr-tb" unicode-bidi="normal" text-decoration="none" transform="matrix(1 0 0 1 562.045 978)">code are missing from the record.</text><text fill="#484848" fill-opacity="1" font-family="Calibri,Calibri_MSFontService,sans-serif" font-style="normal" font-variant="normal" font-weight="700" font-stretch="normal" font-size="110" text-anchor="start" direction="ltr" writing-mode="lr-tb" unicode-bidi="normal" text-decoration="none" transform="matrix(1 0 0 1 717.516 524)">How to identify the type of public space?</text><text fill="#484848" fill-opacity="1" font-family="Calibri,Calibri_MSFontService,sans-serif" font-style="normal" font-variant="normal" font-weight="400" font-stretch="normal" font-size="52" text-anchor="start" direction="ltr" writing-mode="lr-tb" unicode-bidi="normal" text-decoration="none" transform="matrix(1 0 0 1 1461.78 735)">Maybe from the </text><text fill="#484848" fill-opacity="1" font-family="Calibri,Calibri_MSFontService,sans-serif" font-style="normal" font-variant="normal" font-weight="400" font-stretch="normal" font-size="52" text-anchor="start" direction="ltr" writing-mode="lr-tb" unicode-bidi="normal" text-decoration="none" transform="matrix(1 0 0 1 1419.1 777)">possible STREET and </text><text fill="#484848" fill-opacity="1" font-family="Calibri,Calibri_MSFontService,sans-serif" font-style="normal" font-variant="normal" font-weight="400" font-stretch="normal" font-size="52" text-anchor="start" direction="ltr" writing-mode="lr-tb" unicode-bidi="normal" text-decoration="none" transform="matrix(1 0 0 1 1409.36 820)">SQUARE options only </text><text fill="#484848" fill-opacity="1" font-family="Calibri,Calibri_MSFontService,sans-serif" font-style="normal" font-variant="normal" font-weight="400" font-stretch="normal" font-size="52" text-anchor="start" direction="ltr" writing-mode="lr-tb" unicode-bidi="normal" text-decoration="none" transform="matrix(1 0 0 1 1420.53 862)">one is the under the </text><text fill="#484848" fill-opacity="1" font-family="Calibri,Calibri_MSFontService,sans-serif" font-style="normal" font-variant="normal" font-weight="400" font-stretch="normal" font-size="52" text-anchor="start" direction="ltr" writing-mode="lr-tb" unicode-bidi="normal" text-decoration="none" transform="matrix(1 0 0 1 1445.74 905)">given Postal Code.</text><text fill="#44E095" fill-opacity="1" font-family="Calibri,Calibri_MSFontService,sans-serif" font-style="normal" font-variant="normal" font-weight="700" font-stretch="normal" font-size="69" text-anchor="start" direction="ltr" writing-mode="lr-tb" unicode-bidi="normal" text-decoration="none" transform="matrix(1 0 0 1 1422.1 667)">Use Postal Code</text><text fill="#507FCC" fill-opacity="1" font-family="Calibri,Calibri_MSFontService,sans-serif" font-style="normal" font-variant="normal" font-weight="700" font-stretch="normal" font-size="69" text-anchor="start" direction="ltr" writing-mode="lr-tb" unicode-bidi="normal" text-decoration="none" transform="matrix(1 0 0 1 685.795 784)">City Uniqueness</text><text fill="#484848" fill-opacity="1" font-family="Calibri,Calibri_MSFontService,sans-serif" font-style="normal" font-variant="normal" font-weight="400" font-stretch="normal" font-size="52" text-anchor="start" direction="ltr" writing-mode="lr-tb" unicode-bidi="normal" text-decoration="none" transform="matrix(1 0 0 1 2055.95 964)">If the postal code is not available, </text><text fill="#484848" fill-opacity="1" font-family="Calibri,Calibri_MSFontService,sans-serif" font-style="normal" font-variant="normal" font-weight="400" font-stretch="normal" font-size="52" text-anchor="start" direction="ltr" writing-mode="lr-tb" unicode-bidi="normal" text-decoration="none" transform="matrix(1 0 0 1 2074.57 1007)">then maybe there is only one in </text><text fill="#484848" fill-opacity="1" font-family="Calibri,Calibri_MSFontService,sans-serif" font-style="normal" font-variant="normal" font-weight="400" font-stretch="normal" font-size="52" text-anchor="start" direction="ltr" writing-mode="lr-tb" unicode-bidi="normal" text-decoration="none" transform="matrix(1 0 0 1 2191.73 1049)">option in the district.</text><text fill="#DE58A9" fill-opacity="1" font-family="Calibri,Calibri_MSFontService,sans-serif" font-style="normal" font-variant="normal" font-weight="700" font-stretch="normal" font-size="69" text-anchor="start" direction="ltr" writing-mode="lr-tb" unicode-bidi="normal" text-decoration="none" transform="matrix(1 0 0 1 2251.75 904)">Use District</text><path d="M1512.89 1654.58C1512.89 1516.79 1345.86 1340.45 1231.62 1304.44L1231.62 1025.22 1420.71 1025.22 1476.51 1039.37 1476.51 1088.87 1523.33 1104.19 1523.33 1145.44 1534.16 1145.44 1534.16 961.581 1761.07 961.581 1761.07 1145.44 1771.91 1145.44 1771.91 1104.19 1818.72 1088.87 1818.72 1039.37 1874.53 1025.22 2063.62 1025.22 2063.62 1304.44C1949.38 1340.45 1782.35 1516.79 1782.35 1654.58L1681.81 1654.58C1682.9 1643.8 1684.35 1628.63 1685.67 1612.15 1686.04 1607.52 1686.4 1602.78 1686.73 1598.01 1686.81 1596.94 1686.89 1595.87 1686.96 1594.8 1687.83 1582.16 1688.57 1568.58 1689.18 1555.58 1689.4 1550.76 1689.61 1546.02 1689.79 1541.44 1690.54 1523.06 1690.98 1507.23 1691.08 1499.01 1691.09 1497.9 1691.1 1496.93 1691.1 1496.11L1691.1 1462.9C1691.1 1462.9 1690.96 1456.51 1690.63 1446.91 1690.58 1445.48 1690.53 1443.99 1690.47 1442.44 1690.32 1438.12 1690.13 1433.33 1689.9 1428.3 1689.33 1415.59 1688.53 1401.33 1687.44 1389.09 1687.35 1388.02 1687.26 1386.94 1687.19 1385.87 1686.89 1381.13 1686.87 1376.36 1687.45 1371.72 1688.07 1366.79 1689.35 1361.99 1691.68 1357.51 1695.46 1350.23 1701.06 1341.74 1708.89 1334.06 1710.53 1332.45 1712.1 1330.87 1713.59 1329.3 1718.23 1324.43 1722.14 1319.73 1725.19 1315.15 1734.89 1300.6 1735.93 1287.17 1724.01 1272.72 1720.22 1268.14 1715.13 1263.44 1708.58 1258.58 1706.87 1257.31 1705.05 1256.02 1703.14 1254.72 1702.1 1254.01 1701.1 1253.25 1700.11 1252.51 1697.74 1250.7 1695.22 1249.05 1692.68 1248.32 1686.95 1245.55 1683.39 1233.43 1678.59 1233.43 1675.69 1233.43 1671.94 1233.3 1668.78 1234.08 1660.23 1228.87 1648.29 1228.58 1635.68 1236.11 1621.91 1236.11 1616.62 1247.61 1616.55 1258.58L1616.54 1258.73 1616.54 1258.81C1616.54 1262.64 1617.49 1268.06 1619.19 1272.72 1618.32 1272.45 1617.46 1272.44 1616.71 1272.72 1616.59 1272.77 1616.48 1272.82 1616.37 1272.87 1614.01 1274.11 1613.71 1278.17 1615.69 1281.93 1617.68 1285.69 1621.2 1287.74 1623.56 1286.5 1624.09 1286.22 1624.52 1285.8 1624.84 1285.26 1627.43 1293.51 1632.54 1300 1639.51 1303.11L1639.51 1315.15C1638.43 1315.32 1637.46 1315.59 1636.7 1315.87 1635.19 1316.43 1634.71 1317.62 1634.21 1318.89 1633.78 1319.98 1633.33 1321.12 1632.19 1321.98 1629.35 1323.92 1626.6 1325.05 1623.99 1326.12 1621.72 1327.05 1619.55 1327.94 1617.5 1329.3 1617.18 1329.51 1616.86 1329.73 1616.54 1329.97 1613.9 1331.96 1611.08 1334.05 1608.14 1336.22 1593.95 1346.71 1577.12 1359.16 1565.78 1371.72 1561.51 1376.45 1558.02 1381.2 1555.74 1385.87 1554.15 1389.12 1553.15 1392.34 1552.89 1395.48 1551.83 1408.36 1559.59 1419.83 1568.02 1428.3 1575.18 1435.5 1582.82 1440.53 1585.9 1442.44 1586.8 1443 1587.31 1443.29 1587.31 1443.29 1587.31 1443.29 1590.15 1449.06 1593.24 1452.31 1595.68 1454.87 1598.28 1457.32 1599.77 1457.9 1602.71 1459.04 1606.26 1455.49 1607.15 1454.53L1607.59 1438.19C1606.84 1437.72 1605.24 1436.7 1603.93 1435.94 1600.51 1433.93 1596.04 1431.32 1594.99 1430.16 1594.63 1429.55 1594.26 1428.93 1593.86 1428.3 1591.8 1425 1589.22 1421.46 1586.66 1417.98 1581 1410.24 1575.49 1402.72 1576.26 1398.5 1577.01 1395.81 1583.38 1390.84 1590.71 1385.87 1599.08 1380.19 1608.72 1374.52 1612.72 1372.23 1612.09 1376.49 1611.53 1381.1 1611.04 1385.87 1609.59 1400.07 1608.73 1415.75 1608.2 1428.3 1608.05 1431.93 1607.93 1435.3 1607.82 1438.3L1607.36 1454.29 1607.15 1462.9 1607.15 1496.11C1607.15 1496.93 1607.15 1497.9 1607.17 1499.01 1607.26 1507.23 1607.7 1523.06 1608.45 1541.44 1608.64 1546.02 1608.84 1550.76 1609.07 1555.58 1609.67 1568.58 1610.42 1582.16 1611.28 1594.8 1611.36 1595.87 1611.43 1596.94 1611.51 1598.01 1611.85 1602.78 1612.21 1607.52 1612.58 1612.15 1613.9 1628.63 1615.34 1643.8 1616.43 1654.58L1512.89 1654.58ZM1652.58 1496.11 1645.66 1496.11C1645.66 1496.11 1645.58 1497.14 1645.45 1499.01 1644.97 1505.5 1643.78 1522.16 1642.63 1541.44 1642.36 1546.04 1642.09 1550.79 1641.83 1555.58 1641.1 1569.04 1640.47 1582.87 1640.16 1594.8 1640.14 1595.87 1640.11 1596.94 1640.09 1598.01 1639.98 1602.79 1639.89 1607.53 1639.84 1612.15 1639.63 1628.71 1639.73 1643.84 1639.87 1654.58L1658.38 1654.58C1658.52 1643.84 1658.61 1628.71 1658.41 1612.15 1658.35 1607.53 1658.27 1602.79 1658.16 1598.01 1658.13 1596.94 1658.11 1595.87 1658.08 1594.8 1657.77 1582.87 1657.14 1569.04 1656.42 1555.58 1656.16 1550.79 1655.88 1546.04 1655.61 1541.44 1654.46 1522.16 1653.27 1505.5 1652.8 1499.01 1652.66 1497.14 1652.58 1496.11 1652.58 1496.11ZM1661.54 1315.87C1660.78 1315.59 1659.81 1315.32 1658.73 1315.15L1658.73 1303.11C1665.69 1300.01 1670.79 1293.53 1673.39 1285.31 1673.7 1285.82 1674.12 1286.23 1674.64 1286.5 1677 1287.74 1680.52 1285.69 1682.51 1281.93 1684.49 1278.17 1684.19 1274.11 1681.83 1272.87 1681.72 1272.82 1681.61 1272.77 1681.49 1272.72 1680.75 1272.44 1679.92 1272.45 1679.06 1272.71 1680.76 1268.04 1681.7 1262.63 1681.7 1258.81 1681.7 1258.73 1681.7 1258.66 1681.7 1258.58 1681.69 1257.03 1681.58 1255.52 1681.37 1254.06 1683.14 1255.83 1684.82 1257.19 1686.13 1257.66 1686.22 1257.96 1686.28 1258.29 1686.46 1258.58 1687.72 1260.65 1691.15 1262.71 1694.01 1264.44 1695.47 1265.32 1696.78 1266.11 1697.59 1266.77 1699.99 1268.81 1702.15 1270.8 1704.07 1272.72 1720.88 1289.65 1718.52 1302.24 1688.28 1315.15 1686.54 1315.9 1684.7 1316.64 1682.77 1317.39 1676.31 1317.39 1673.59 1319.71 1671.66 1321.37 1669.89 1322.88 1668.77 1323.84 1666.06 1321.98 1664.91 1321.12 1664.46 1319.98 1664.03 1318.89 1663.53 1317.62 1663.06 1316.43 1661.54 1315.87ZM1231.62 1025.22 1287.42 1039.37 1287.42 1088.87 1334.24 1104.19 1334.24 1145.44 1369.94 1159.58 1369.94 1202.01 1399.77 1216.15 1399.77 1258.58 1425.44 1272.72 1425.44 1315.15 1447.68 1329.3 1447.68 1371.72 1466.85 1385.87 1466.85 1428.3 1483.08 1442.44 1483.08 1484.87 1496.35 1499.01 1496.35 1541.44 1506.38 1555.58 1506.38 1598.01 1512.89 1612.15 1512.89 1654.58M2063.62 1025.22 2007.81 1039.37 2007.81 1088.87 1961 1104.19 1961 1145.44 1925.29 1159.58 1925.29 1202.01 1895.46 1216.15 1895.46 1258.58 1869.8 1272.72 1869.8 1315.15 1847.56 1329.3 1847.56 1371.72 1828.38 1385.87 1828.38 1428.3 1812.15 1442.44 1812.15 1484.87 1798.89 1499.01 1798.89 1541.44 1788.86 1555.58 1788.86 1598.01 1782.35 1612.15 1782.35 1654.58M1476.51 1039.37 1287.42 1039.37M1334.24 1104.19 1523.33 1104.19M1420.71 1025.22 1231.62 1025.22M1818.72 1039.37 2007.81 1039.37M1961 1104.19 1771.91 1104.19M1874.53 1025.22 2063.62 1025.22M1476.51 1088.87 1287.42 1088.87M1334.24 1145.44 1961 1145.44M1818.72 1088.87 2007.81 1088.87M1369.94 1202.01 1925.29 1202.01M1761.07 1088.87 1534.16 1088.87M1534.16 1039.37 1761.07 1039.37M1534.16 961.581 1761.07 961.581M1534.16 975.724 1761.07 975.724M1399.77 1216.15 1895.46 1216.15M1369.94 1159.58 1925.29 1159.58M1534.16 1104.19 1761.07 1104.19M1534.16 1025.22 1761.07 1025.22M1512.89 1654.58 1616.43 1654.58M1512.89 1612.15 1612.58 1612.15M1639.87 1654.58 1658.38 1654.58M1681.81 1654.58 1782.35 1654.58M1685.67 1612.15 1782.35 1612.15M1639.84 1612.15 1658.41 1612.15M1640.09 1598.01 1658.16 1598.01M1506.38 1598.01 1611.51 1598.01M1686.73 1598.01 1788.86 1598.01M1689.18 1555.58 1788.86 1555.58M1641.83 1555.58 1656.42 1555.58M1506.38 1555.58 1609.07 1555.58M1608.45 1541.44 1496.35 1541.44M1655.61 1541.44 1642.63 1541.44M1798.89 1541.44 1689.79 1541.44M1645.45 1499.01 1652.8 1499.01M1496.35 1499.01 1607.17 1499.01M1691.08 1499.01 1798.89 1499.01M1812.15 1484.87 1691.1 1484.87M1607.15 1484.87 1483.08 1484.87M1690.47 1442.44 1812.15 1442.44M1689.9 1428.3 1828.38 1428.3M1466.85 1428.3 1568.02 1428.3M1483.08 1442.44 1585.9 1442.44M1593.86 1428.3 1608.2 1428.3M1466.85 1385.87 1555.74 1385.87M1447.68 1371.72 1565.78 1371.72M1590.71 1385.87 1611.04 1385.87M1687.19 1385.87 1828.38 1385.87M1687.45 1371.72 1847.56 1371.72M1713.59 1329.3 1847.56 1329.3M1725.19 1315.15 1869.8 1315.15M1447.68 1329.3 1617.5 1329.3M1658.73 1315.15 1688.28 1315.15M1425.44 1315.15 1639.51 1315.15M1425.44 1272.72 1616.71 1272.72M1681.7 1258.58 1686.46 1258.58M1724.01 1272.72 1869.8 1272.72M1708.58 1258.58 1895.46 1258.58M1399.77 1258.58 1616.55 1258.58M1681.49 1272.72 1704.07 1272.72" stroke="#000000" stroke-width="4.72516" stroke-linecap="round" stroke-linejoin="round" stroke-miterlimit="10" stroke-opacity="1" fill="none" fill-rule="evenodd"/><path d="M1466.05 1089.09 1839.05 1089.09 1839.05 1215.1 1466.05 1215.1Z" stroke="#000000" stroke-width="2.36276" stroke-linecap="round" stroke-linejoin="round" stroke-miterlimit="10" stroke-opacity="1" fill="#EBEBEB" fill-rule="evenodd" fill-opacity="1"/><text fill="#FD6A65" fill-opacity="1" font-family="Calibri,Calibri_MSFontService,sans-serif" font-style="normal" font-variant="normal" font-weight="700" font-stretch="normal" font-size="50" text-anchor="start" direction="ltr" writing-mode="lr-tb" unicode-bidi="normal" text-decoration="none" transform="matrix(1 0 0 1 1491.49 1169)">"</text><text fill="#FD6A65" fill-opacity="1" font-family="Calibri,Calibri_MSFontService,sans-serif" font-style="normal" font-variant="normal" font-weight="700" font-stretch="normal" font-size="50" text-anchor="start" direction="ltr" writing-mode="lr-tb" unicode-bidi="normal" text-decoration="none" transform="matrix(1 0 0 1 1513.84 1169)">Batthyány</text><text fill="#FD6A65" fill-opacity="1" font-family="Calibri,Calibri_MSFontService,sans-serif" font-style="normal" font-variant="normal" font-weight="700" font-stretch="normal" font-size="50" text-anchor="start" direction="ltr" writing-mode="lr-tb" unicode-bidi="normal" text-decoration="none" transform="matrix(1 0 0 1 1740.14 1169)">26”</text><path d="M1466.55 1089.59 1839.55 1089.59 1839.55 1215.6 1466.55 1215.6Z" stroke="#000000" stroke-width="4.72516" stroke-linecap="round" stroke-linejoin="round" stroke-miterlimit="10" stroke-opacity="1" fill="none" fill-rule="evenodd"/><path d="M1639.58 1670.56 1639.58 1682.6C1639.58 1682.6 1629.9 1685.6 1619.34 1682.6 1612.89 1684.31 1605.07 1680.24 1605.07 1680.24L1605.07 1677.63C1605.07 1671.44 1611.06 1669.53 1615.24 1670.15 1616.01 1670.26 1616.77 1670.41 1617.54 1670.5 1617.35 1668.79 1613.28 1632.28 1610.69 1594.55 1608.03 1555.9 1606.55 1508.39 1606.55 1495.89 1606.55 1483.38 1606.76 1473.75 1606.76 1462.68L1606.76 1454.08C1606.76 1454.08 1602.55 1459 1599.17 1457.68 1597.67 1457.1 1595.07 1454.65 1592.63 1452.09 1589.54 1448.84 1586.7 1443.07 1586.7 1443.07 1586.7 1443.07 1550.03 1422.3 1552.27 1395.27 1553.89 1375.67 1584.27 1353.22 1607.54 1336.03 1610.48 1333.86 1613.31 1331.77 1615.95 1329.78 1618.27 1328.03 1620.77 1327.01 1623.4 1325.93 1626.01 1324.86 1628.76 1323.73 1631.6 1321.79 1632.74 1320.92 1633.19 1319.78 1633.62 1318.7 1634.13 1317.43 1634.6 1316.24 1636.12 1315.68 1636.88 1315.4 1637.85 1315.18 1638.93 1315.01L1638.93 1302.92C1631.95 1299.82 1626.84 1293.32 1624.25 1285.08 1623.93 1285.61 1623.5 1286.04 1622.97 1286.32 1620.6 1287.55 1617.08 1285.51 1615.1 1281.74 1613.11 1277.98 1613.42 1273.93 1615.78 1272.69 1616.61 1272.26 1617.59 1272.23 1618.59 1272.54 1616.89 1267.87 1615.95 1262.46 1615.95 1258.63 1615.95 1247.59 1621.22 1235.94 1635.09 1235.94 1647.65 1228.44 1659.54 1228.7 1668.09 1233.84 1665.05 1234.41 1662.86 1236.4 1662.06 1238.64 1660.88 1241.97 1663.7 1245.58 1666.11 1245.25 1667.17 1245.11 1667.13 1242.95 1667.74 1241.69 1668.17 1240.8 1669.01 1240.66 1670.22 1240.66 1673.28 1245.54 1676.98 1249.93 1680.84 1254.18 1681.65 1260.35 1680.61 1266.71 1678.49 1272.53 1683.96 1270.88 1683.58 1278.65 1681.94 1281.74 1680.52 1284.45 1675.36 1289.21 1672.82 1285.13 1670.22 1293.35 1665.12 1299.82 1658.15 1302.92L1658.15 1315.01C1659.23 1315.18 1660.2 1315.4 1660.96 1315.68 1663.77 1316.72 1663 1319.91 1665.48 1321.79 1671.18 1325.69 1669.85 1317.2 1682.21 1317.2 1721.45 1302.01 1721.72 1287.64 1697.03 1266.59 1694.39 1264.44 1686.47 1260.93 1685.5 1257.52 1684.18 1257.05 1682.57 1255.66 1680.8 1253.88 1676.66 1249.73 1672.01 1243.28 1670.29 1240.55 1669.08 1240.55 1668.04 1240.78 1667.6 1241.67 1666.99 1242.93 1667.17 1244.98 1666.11 1245.13 1663.7 1245.46 1661.09 1241.95 1662.27 1238.62 1663.22 1235.93 1665.5 1234.58 1668.21 1233.91 1671.37 1233.12 1675.12 1233.26 1678.02 1233.26 1682.83 1233.26 1686.38 1245.37 1692.12 1248.15 1694.66 1248.87 1697.18 1250.52 1699.56 1252.33 1700.54 1253.08 1701.54 1253.84 1702.58 1254.54 1744.43 1282.9 1737.71 1305.07 1708.34 1333.87 1700.51 1341.54 1694.9 1350.03 1691.12 1357.31 1686.11 1366.96 1685.92 1378.07 1686.88 1388.89 1688.55 1407.7 1689.55 1431.31 1690.07 1446.69 1690.4 1456.29 1690.53 1462.68 1690.53 1462.68L1690.53 1473.64 1690.53 1495.89C1690.53 1508.39 1689.06 1555.9 1686.4 1594.55 1683.81 1632.13 1679.77 1668.49 1679.54 1670.47 1680.45 1670.36 1681.34 1670.16 1682.25 1670.04 1686.34 1669.48 1692.14 1671.6 1692.14 1677.63L1692.14 1680.24C1692.14 1680.24 1684.8 1684.1 1678.34 1682.6 1668.01 1686.03 1657.5 1682.6 1657.5 1682.6L1657.5 1670.56C1657.5 1670.56 1658.51 1633.66 1657.5 1594.55 1656.5 1555.45 1652.01 1495.89 1652.01 1495.89L1645.08 1495.89C1645.08 1495.89 1640.58 1555.45 1639.58 1594.55 1638.58 1633.66 1639.58 1670.56 1639.58 1670.56ZM1607.22 1438.08C1607.79 1421.26 1609.06 1392.65 1612.12 1372.03 1604.6 1376.32 1577.26 1392.55 1575.64 1398.29 1574.88 1402.51 1580.38 1410.03 1586.05 1417.76 1589.1 1421.92 1592.19 1426.14 1594.38 1429.95 1595.44 1431.11 1599.91 1433.72 1603.33 1435.72 1605.15 1436.79 1606.67 1437.68 1607.22 1438.08Z" fill="url(#fill1)" fill-rule="evenodd"/><path d="M1640.08 1671.06 1640.08 1683.1C1640.08 1683.1 1630.4 1686.1 1619.84 1683.1 1613.38 1684.81 1605.57 1680.74 1605.57 1680.74L1605.57 1678.13C1605.57 1671.94 1611.56 1670.03 1615.74 1670.65 1616.51 1670.76 1617.27 1670.91 1618.04 1671 1617.85 1669.29 1613.78 1632.79 1611.19 1595.05 1608.53 1556.4 1607.05 1508.89 1607.05 1496.39 1607.05 1483.88 1607.26 1474.25 1607.26 1463.18L1607.26 1454.58C1607.26 1454.58 1603.05 1459.5 1599.67 1458.18 1598.17 1457.6 1595.57 1455.15 1593.13 1452.59 1590.04 1449.34 1587.2 1443.57 1587.2 1443.57 1587.2 1443.57 1550.53 1422.8 1552.77 1395.77 1554.39 1376.17 1584.77 1353.72 1608.04 1336.53 1610.98 1334.36 1613.81 1332.27 1616.45 1330.28 1618.77 1328.53 1621.27 1327.51 1623.9 1326.43 1626.51 1325.36 1629.26 1324.23 1632.1 1322.29 1633.24 1321.42 1633.69 1320.28 1634.12 1319.2 1634.63 1317.93 1635.1 1316.74 1636.62 1316.18 1637.38 1315.9 1638.35 1315.68 1639.43 1315.51L1639.43 1303.42C1632.45 1300.32 1627.34 1293.82 1624.75 1285.58 1624.43 1286.11 1624 1286.54 1623.46 1286.82 1621.1 1288.05 1617.58 1286.01 1615.6 1282.25 1613.61 1278.48 1613.91 1274.43 1616.28 1273.19 1617.11 1272.76 1618.09 1272.73 1619.09 1273.04 1617.39 1268.37 1616.45 1262.96 1616.45 1259.13 1616.45 1248.09 1621.72 1236.44 1635.59 1236.44 1648.15 1228.94 1660.04 1229.2 1668.59 1234.34 1665.55 1234.91 1663.36 1236.9 1662.56 1239.14 1661.38 1242.47 1664.2 1246.08 1666.61 1245.75 1667.67 1245.61 1667.63 1243.45 1668.24 1242.19 1668.67 1241.3 1669.51 1241.16 1670.72 1241.16 1673.78 1246.04 1677.48 1250.43 1681.34 1254.68 1682.15 1260.85 1681.11 1267.21 1678.99 1273.03 1684.46 1271.38 1684.08 1279.15 1682.44 1282.25 1681.02 1284.95 1675.86 1289.71 1673.32 1285.63 1670.72 1293.85 1665.62 1300.32 1658.65 1303.42L1658.65 1315.51C1659.73 1315.68 1660.7 1315.9 1661.46 1316.18 1664.27 1317.22 1663.5 1320.41 1665.98 1322.29 1671.68 1326.19 1670.35 1317.7 1682.71 1317.7 1721.95 1302.51 1722.22 1288.14 1697.53 1267.09 1694.89 1264.94 1686.97 1261.43 1686 1258.02 1684.68 1257.55 1683.07 1256.16 1681.3 1254.38 1677.16 1250.23 1672.51 1243.78 1670.79 1241.05 1669.58 1241.05 1668.54 1241.28 1668.1 1242.17 1667.49 1243.43 1667.67 1245.48 1666.61 1245.63 1664.2 1245.96 1661.59 1242.45 1662.77 1239.12 1663.72 1236.43 1666 1235.08 1668.71 1234.41 1671.87 1233.62 1675.62 1233.76 1678.52 1233.76 1683.33 1233.76 1686.88 1245.87 1692.62 1248.65 1695.16 1249.37 1697.68 1251.02 1700.06 1252.83 1701.04 1253.58 1702.04 1254.34 1703.08 1255.04 1744.93 1283.4 1738.21 1305.57 1708.83 1334.37 1701.01 1342.04 1695.4 1350.53 1691.62 1357.81 1686.61 1367.46 1686.42 1378.57 1687.38 1389.39 1689.05 1408.2 1690.05 1431.81 1690.57 1447.19 1690.9 1456.79 1691.03 1463.18 1691.03 1463.18L1691.03 1474.14 1691.03 1496.39C1691.03 1508.89 1689.56 1556.4 1686.9 1595.05 1684.31 1632.63 1680.27 1668.99 1680.04 1670.97 1680.95 1670.86 1681.84 1670.66 1682.75 1670.54 1686.84 1669.98 1692.64 1672.1 1692.64 1678.13L1692.64 1680.74C1692.64 1680.74 1685.3 1684.59 1678.84 1683.1 1668.51 1686.53 1658 1683.1 1658 1683.1L1658 1671.06C1658 1671.06 1659.01 1634.15 1658 1595.05 1657 1555.95 1652.51 1496.39 1652.51 1496.39L1645.58 1496.39C1645.58 1496.39 1641.08 1555.95 1640.08 1595.05 1639.08 1634.15 1640.08 1671.06 1640.08 1671.06ZM1607.72 1438.58C1608.29 1421.76 1609.56 1393.15 1612.62 1372.53 1605.1 1376.82 1577.76 1393.05 1576.14 1398.79 1575.38 1403.01 1580.88 1410.53 1586.55 1418.26 1589.6 1422.42 1592.69 1426.64 1594.88 1430.45 1595.94 1431.61 1600.41 1434.22 1603.83 1436.22 1605.65 1437.28 1607.17 1438.18 1607.72 1438.58ZM1691.03 1496.39C1691.04 1488.08 1691.04 1481.17 1691.03 1474.14 1691.03 1470.58 1691.03 1466.99 1691.03 1463.18M1697.53 1267.09C1698.54 1267.9 1696.6 1266.29 1697.53 1267.09ZM1640.08 1671.06 1618.05 1671.06M1626.31 1496.39C1638.16 1499.38 1645.58 1496.39 1645.58 1496.39M1658 1671.06 1680.04 1671.06M1671.77 1496.39C1659.92 1499.38 1652.51 1496.39 1652.51 1496.39M1607.05 1463.18 1691.04 1463.18 1607.26 1463.18M1632.1 1322.29 1665.98 1322.29M1658.65 1315.51C1655.53 1315.03 1651.5 1314.96 1649.04 1314.96 1646.58 1314.96 1642.55 1315.03 1639.43 1315.51M1607.72 1438.58C1607.4 1448.18 1607.26 1454.57 1607.26 1454.57M1594.88 1430.45 1587.2 1443.57M1612.62 1372.53 1613.58 1366.09M1686.07 1257.98C1687.79 1255.67 1692.62 1248.65 1692.62 1248.65M1678.99 1273.03C1677.78 1276.35 1676.19 1279.29 1674.28 1281.01 1671.86 1288.53 1668.53 1294.84 1664.94 1296.24 1660.24 1298.08 1654.81 1299.07 1649.04 1299.07 1643.27 1299.07 1637.85 1298.08 1633.14 1296.24 1629.56 1294.84 1626.45 1288.58 1623.8 1281.01 1621.89 1279.29 1620.3 1276.35 1619.09 1273.04M1681.3 1254.38C1677.16 1250.23 1672.51 1243.78 1670.79 1241.05 1669.58 1241.05 1668.54 1241.28 1668.1 1242.17 1667.49 1243.43 1667.67 1245.48 1666.61 1245.63 1664.2 1245.96 1661.59 1242.45 1662.77 1239.12 1663.72 1236.43 1666 1235.08 1668.71 1234.41" stroke="#000000" stroke-width="4.72516" stroke-linecap="round" stroke-linejoin="round" stroke-miterlimit="10" stroke-opacity="1" fill="none" fill-rule="evenodd"/></g></g></svg>