<?xml version="1.0" encoding="utf-8" standalone="yes"?>
<!DOCTYPE svg PUBLIC "-//W3C//DTD SVG 1.1//EN" "http://www.w3.org/Graphics/SVG/1.1/DTD/svg11.dtd">
<svg width="866" height="721" viewBox="0 0 866 721" style="fill:none;stroke:none;fill-rule:evenodd;clip-rule:evenodd;stroke-linecap:round;stroke-linejoin:round;stroke-miterlimit:1.5;" version="1.1" xmlns="http://www.w3.org/2000/svg" xmlns:xlink="http://www.w3.org/1999/xlink"><style id="fontImports">@import url("https://fonts.googleapis.com/css2?family=Roboto:wght@400;700&amp;display=block");</style><g id="items" style="isolation: isolate"><g id="blend" style="mix-blend-mode: normal"><g id="g-root-0.cu_sy_1hfpocr1knhukv-fill" data-item-order="-217364" transform="translate(236.00387573242188, 219.1943359375)"><g id="0.cu_sy_1hfpocr1knhukv-fill" stroke="none" fill="url(#gradient-cbcbcb-248399021)"><g><path d="M 147.40803 14.4789C 142.49003 20.1896 136.99603 24.0555 136.99603 24.0555C 136.99603 24.0555 133.70803 21.742 129.94203 18.0507C 122.74803 20.0888 118.13803 22.4824 116.92203 25.1948C 112.27203 35.5648 148.80203 43.0948 219.75203 45.7848C 260.67203 47.3348 297.29203 51.0548 299.18203 59.3448C 301.18203 68.1448 259.26203 72.5051 213.52203 73.8051C 121.25203 76.4275 87.32693 89.3051 84.80213 104.0348C 82.27723 118.765 98.75223 136.465 212.42203 141.805C 269.00203 144.463 319.17203 153.225 321.62203 165.015C 326.17203 178.225 286.75203 189.018 213.52203 191.865C 154.44203 194.162 109.10813 199.806 76.40253 208.325C 79.32693 213.573 80.99493 219.629 80.99493 226.079L 80.99603 226.079C 80.99603 252.618 44.99603 277.806 44.99603 277.806C 44.99603 277.806 23.75763 262.946 13.90663 244.028C 12.33453 246.98 11.26983 250.037 10.70213 253.195C 2.50293 298.805 65.99603 326.805 207.47203 339.905C 284.96103 347.08 359.15203 362.805 366.25203 393.975C 371.92103 418.867 345.23603 438.904 296.99603 451.755L 440.09603 451.755C 456.26703 433.863 462.99903 413.649 458.75303 391.945C 447.98203 336.905 383.25303 302.477 209.20203 293.395C 130.05203 289.265 77.02913 274.525 80.11213 255.165C 83.19513 235.805 125.19203 223.305 212.42203 217.785C 333.48203 210.124 377.89403 191.865 373.51203 164.995C 372.55403 159.116 368.91803 153.582 361.86603 148.566C 354.41003 156.572 346.99603 161.805 346.99603 161.805C 346.99603 161.805 329.11703 149.183 320.96403 133.158C 296.62803 127.851 262.62903 124.175 216.47203 122.715C 145.27303 120.463 122.18203 113.205 125.19203 104.0248C 128.18203 95.2148 168.59203 88.7448 218.00203 86.8248C 300.06203 83.6348 338.35203 72.7448 333.48203 59.3448C 329.02203 47.0748 293.74203 39.4848 220.14203 36.7048C 178.50203 35.1348 149.36203 32.0148 151.49203 25.1948C 153.51703 18.7313 184.55403 10.0441 220.84503 10C 192.73903 10.0187 166.52103 11.5905 147.40803 14.4789Z"></path></g></g></g><g id="g-root-1.cu_sy_1d0inbf1knhs7c-fill" data-item-order="-217360" transform="translate(235, 399)"><g id="1.cu_sy_1d0inbf1knhs7c-fill" stroke="none" fill="url(#gradient-76aaff-163240667)"><g><path d="M 10.0011 46.2732C 10.0011 26.2399 26.0941 10 45.9463 10L 46.0537 10C 65.9059 10 81.9989 26.2399 81.9989 46.2732L 82 46.2732C 82 72.8129 46 98 46 98C 46 98 10 72.8129 10 46.2732L 10.0011 46.2732Z"></path></g></g></g><g id="g-root-2.cu_sy_1d0inbf1knhs7d-fill" data-item-order="-217356" transform="translate(543, 297)"><g id="2.cu_sy_1d0inbf1knhs7d-fill" stroke="none" fill="url(#gradient-64edab-240055791)"><g><path d="M 10.0009 40.5024C 10.0009 23.6562 23.4117 10 39.9552 10L 40.0448 10C 56.5883 10 69.9991 23.6562 69.9991 40.5024L 70 40.5024C 70 62.8199 40 84 40 84C 40 84 10 62.8199 10 40.5024L 10.0009 40.5024Z"></path></g></g></g><g id="g-root-3.cu_sy_1d0inbf1knhs7e-fill" data-item-order="-217352" transform="translate(345, 189)"><defs><linearGradient id="gradient-cbcbcb-248399021" x2="0" y2="1"><stop offset="0" stop-color="#d9d9d9"></stop><stop offset="1" stop-color="#bcbcbc"></stop></linearGradient><linearGradient id="gradient-76aaff-163240667" x2="0" y2="1"><stop offset="0" stop-color="#9cc2ff"></stop><stop offset="1" stop-color="#4f92ff"></stop></linearGradient><linearGradient id="gradient-64edab-240055791" x2="0" y2="1"><stop offset="0" stop-color="#83fac1"></stop><stop offset="1" stop-color="#44e095"></stop></linearGradient><linearGradient id="gradient-bceb57-497517668" x2="0" y2="1"><stop offset="0" stop-color="#cff976"></stop><stop offset="1" stop-color="#a8dd38"></stop></linearGradient></defs><g id="3.cu_sy_1d0inbf1knhs7e-fill" stroke="none" fill="url(#gradient-bceb57-497517668)"><g><path d="M 10.0005 28.2396C 10.0005 18.1661 18.047 10 27.9731 10L 28.0269 10C 37.953 10 45.9995 18.1661 45.9995 28.2396L 46 28.2396C 46 41.5849 28 54.25 28 54.25C 28 54.25 10 41.5849 10 28.2396L 10.0005 28.2396Z"></path></g></g></g><g id="g-root-tx_decrease_1d1rlhn1knhudk-fill" data-item-order="0" transform="translate(135, 87)"><g id="tx_decrease_1d1rlhn1knhudk-fill" stroke="none" fill="#92bd39"><g><text style="font-style: normal; font-variant-caps: normal; font-weight: bold; font-stretch: normal; font-size: 20px; line-height: normal; font-family: Roboto, sans-serif; font-size-adjust: none; font-kerning: auto; font-variant-alternates: normal; font-variant-ligatures: normal; font-variant-numeric: normal; font-variant-east-asian: normal; font-variant-position: normal; font-variant-emoji: normal; font-feature-settings: normal; font-optical-sizing: auto; font-variation-settings: normal; white-space: pre;"><tspan x="104" y="34" dominant-baseline="ideographic">Decrease </tspan><tspan x="21" y="58" dominant-baseline="ideographic">Computation Time</tspan></text></g></g></g><g id="g-root-tx_cutdatac_hyeljf1knhszp-fill" data-item-order="0" transform="translate(135, 147)"><g id="tx_cutdatac_hyeljf1knhszp-fill" stroke="none" fill="#484848"><g><text style="font-style: normal; font-variant-caps: normal; font-weight: normal; font-stretch: normal; font-size: 20px; line-height: normal; font-family: Roboto, sans-serif; font-size-adjust: none; font-kerning: auto; font-variant-alternates: normal; font-variant-ligatures: normal; font-variant-numeric: normal; font-variant-east-asian: normal; font-variant-position: normal; font-variant-emoji: normal; font-feature-settings: normal; font-optical-sizing: auto; font-variation-settings: normal; white-space: pre;"><tspan x="33" y="34" dominant-baseline="ideographic">Cut data cleaning </tspan><tspan x="18" y="58" dominant-baseline="ideographic">time from 25 hours </tspan><tspan x="82" y="82" dominant-baseline="ideographic">to 0.5 hours</tspan></text></g></g></g><g id="g-root-tx_reduceal_1qd83uz1knhssn-fill" data-item-order="0" transform="translate(639, 255)"><g id="tx_reduceal_1qd83uz1knhssn-fill" stroke="none" fill="#3cc583"><g><text style="font-style: normal; font-variant-caps: normal; font-weight: bold; font-stretch: normal; font-size: 20px; line-height: normal; font-family: Roboto, sans-serif; font-size-adjust: none; font-kerning: auto; font-variant-alternates: normal; font-variant-ligatures: normal; font-variant-numeric: normal; font-variant-east-asian: normal; font-variant-position: normal; font-variant-emoji: normal; font-feature-settings: normal; font-optical-sizing: auto; font-variation-settings: normal; white-space: pre;"><tspan x="12" y="34" dominant-baseline="ideographic">Reduce Algorithm </tspan><tspan x="12" y="58" dominant-baseline="ideographic">Complexity</tspan></text></g></g></g><g id="g-root-tx_simplifi_v98mtn1knhukk-fill" data-item-order="0" transform="translate(639, 315)"><g id="tx_simplifi_v98mtn1knhukk-fill" stroke="none" fill="#484848"><g><text style="font-style: normal; font-variant-caps: normal; font-weight: normal; font-stretch: normal; font-size: 20px; line-height: normal; font-family: Roboto, sans-serif; font-size-adjust: none; font-kerning: auto; font-variant-alternates: normal; font-variant-ligatures: normal; font-variant-numeric: normal; font-variant-east-asian: normal; font-variant-position: normal; font-variant-emoji: normal; font-feature-settings: normal; font-optical-sizing: auto; font-variation-settings: normal; white-space: pre;"><tspan x="12" y="34" dominant-baseline="ideographic">Simplified the </tspan><tspan x="12" y="58" dominant-baseline="ideographic">algorithm for better </tspan><tspan x="12" y="82" dominant-baseline="ideographic">efficiency</tspan></text></g></g></g><g id="g-root-tx_implemen_4my3631knhukm-fill" data-item-order="0" transform="translate(15, 399)"><g id="tx_implemen_4my3631knhukm-fill" stroke="none" fill="#4e88e7"><g><text style="font-style: normal; font-variant-caps: normal; font-weight: bold; font-stretch: normal; font-size: 20px; line-height: normal; font-family: Roboto, sans-serif; font-size-adjust: none; font-kerning: auto; font-variant-alternates: normal; font-variant-ligatures: normal; font-variant-numeric: normal; font-variant-east-asian: normal; font-variant-position: normal; font-variant-emoji: normal; font-feature-settings: normal; font-optical-sizing: auto; font-variation-settings: normal; white-space: pre;"><tspan x="23" y="34" dominant-baseline="ideographic">Implement Quality </tspan><tspan x="121" y="58" dominant-baseline="ideographic">Checks</tspan></text></g></g></g><g id="g-root-tx_initiate_18kp56z1knhszn-fill" data-item-order="0" transform="translate(27, 459)"><g id="tx_initiate_18kp56z1knhszn-fill" stroke="none" fill="#484848"><g><text style="font-style: normal; font-variant-caps: normal; font-weight: normal; font-stretch: normal; font-size: 20px; line-height: normal; font-family: Roboto, sans-serif; font-size-adjust: none; font-kerning: auto; font-variant-alternates: normal; font-variant-ligatures: normal; font-variant-numeric: normal; font-variant-east-asian: normal; font-variant-position: normal; font-variant-emoji: normal; font-feature-settings: normal; font-optical-sizing: auto; font-variation-settings: normal; white-space: pre;"><tspan x="40" y="34" dominant-baseline="ideographic">Initiated quality </tspan><tspan x="13" y="58" dominant-baseline="ideographic">checks to improve </tspan><tspan x="47" y="82" dominant-baseline="ideographic">data matching</tspan></text></g></g></g><g id="g-root-0.cu_sy_1hfpocr1knhukv-stroke" data-item-order="-217364" transform="translate(236.00387573242188, 219.1943359375)"><g id="0.cu_sy_1hfpocr1knhukv-stroke" fill="none" stroke-linecap="round" stroke-linejoin="round" stroke-miterlimit="4" stroke="#484848" stroke-width="2"><g><path d="M 221.122352 10C 221.029752 10 220.937252 10.0001 220.844752 10.0002C 221.013852 10.0001 221.183152 10 221.352352 10L 221.122352 10ZM 296.996152 451.7548C 345.235652 438.9047 371.921552 418.867 366.251952 393.975C 359.152352 362.8052 284.961152 347.0797 207.472352 339.905C 65.996152 326.8057 2.503052 298.8052 10.702252 253.195C 11.269152 250.0414 12.331652 246.9885 13.899952 244.0408M 440.096452 451.7548C 456.267352 433.8635 462.999552 413.6489 458.752652 391.945C 447.982652 336.9049 383.252652 302.4768 209.202352 293.395C 130.052352 289.265 77.029252 274.5248 80.112252 255.165C 83.195252 235.8052 125.192352 223.3052 212.422352 217.785C 333.482352 210.1239 377.894152 191.865 373.512352 164.995C 372.552252 159.1072 368.906752 153.565 361.833752 148.5428M 76.416152 208.3216C 109.120752 199.8042 154.450552 194.1616 213.522352 191.865C 286.752352 189.018 326.172352 178.225 321.622352 165.015C 319.172352 153.225 269.002352 144.4634 212.422352 141.8052C 98.752352 136.4649 82.277352 118.7648 84.802252 104.035C 87.327052 89.3052 121.252352 76.4277 213.522352 73.8052C 259.262452 72.5052 301.182352 68.145 299.182352 59.345C 297.292352 51.055 260.672352 47.335 219.752352 45.785C 148.802352 43.095 112.272252 35.565 116.922252 25.195C 118.141452 22.4759 122.770852 20.0772 129.996152 18.0357M 320.996152 133.1656C 296.658552 127.8547 262.649752 124.1756 216.472352 122.715C 145.273552 120.463 122.182252 113.205 125.192252 104.025C 128.182252 95.215 168.592452 88.745 218.002352 86.825C 300.062352 83.635 338.352352 72.745 333.482352 59.345C 329.022352 47.075 293.742352 39.485 220.142352 36.705C 178.502452 35.135 149.362252 32.015 151.492252 25.195C 153.517052 18.7315 184.553952 10.0443 220.844752 10.0002C 192.691252 10.0189 166.431152 11.5961 147.310052 14.4939M 412.331603 418.46543C 410.691603 422.59543 408.351603 426.72543 405.361603 430.73543M 414.251603 394.08543C 415.201603 398.08543 415.531603 402.14543 415.231603 406.17543M 401.761603 371.32543C 404.931603 374.90543 407.601603 378.63543 409.681603 382.40543M 377.021603 352.49543C 382.031603 355.50543 386.661603 358.69543 390.761603 361.97543M 342.641603 337.46543C 349.041603 339.79543 355.171603 342.31543 360.871603 344.97543M 301.231603 325.74543C 308.581603 327.31543 315.791603 329.09543 322.661603 331.04543M 255.161603 318.80583C 263.091603 319.58583 270.981603 320.44543 278.641603 321.61543M 206.741603 314.80583C 206.741603 314.80583 222.999503 315.70683 231.121603 316.08583M 158.091603 310.84543C 165.861603 311.66543 173.931603 312.30543 182.071603 312.73543M 115.481603 303.68543C 122.101603 305.21543 129.131603 306.60543 136.381603 307.79543M 79.741603 293.80543C 84.641603 295.86543 90.041603 297.83543 95.811603 299.64543M 56.361603 280.38543C 59.221603 282.76543 62.641603 285.10543 66.531603 287.33543M 111.271603 215.73543C 105.841603 217.10543 100.611603 218.60543 95.711603 220.18543M 146.161603 208.92543C 140.021603 209.81543 133.971603 210.83543 128.171603 211.96543M 184.401603 205.11543C 177.871603 205.49543 171.341603 206.00543 164.991603 206.63543M 223.721603 203.18543L 204.111603 204.37543M 261.561603 200.83543C 255.531603 201.47543 249.271603 201.99543 242.971603 202.38543M 295.131603 195.69543C 290.051603 196.75543 284.651603 197.73543 279.081603 198.58543M 322.681603 188.31543C 318.951603 189.69543 313.831603 191.01543 309.421603 192.24543M 339.361603 180.42543C 337.221603 181.98543 334.651603 183.53543 331.711603 185.00543M 347.241603 170.81543C 346.751603 172.43543 345.851603 174.06543 344.551603 175.66543M 345.431603 161.24543C 346.271603 162.47543 346.891603 163.73543 347.261603 164.99543C 347.361603 165.32543 347.441603 165.65543 347.501603 165.97543M 316.401603 144.73543C 320.011603 145.88543 323.391603 147.10543 326.441603 148.37543M 291.981603 138.69543C 296.461603 139.54543 300.791603 140.48543 304.851603 141.49543M 263.161603 134.54543C 268.221603 135.06543 273.221603 135.68543 278.011603 136.37543M 231.661603 132.45543C 237.031603 132.62543 242.401603 132.88543 247.631603 133.23543M 199.011603 131.92543C 204.411603 132.11543 209.941603 132.20543 215.451603 132.21543M 167.681603 129.75543C 172.611603 130.28543 177.751603 130.73543 182.961603 131.09543M 140.681603 125.67543C 144.691603 126.49543 149.011603 127.25543 153.501603 127.93543M 120.061603 120.08543C 122.871603 121.11543 126.041603 122.10543 129.461603 123.03543M 107.231603 113.52543C 108.681603 114.67543 110.491603 115.80543 112.621603 116.89543M 102.811603 106.53543C 102.851603 107.70543 103.231603 108.89543 103.961603 110.04543M 106.561603 99.64543C 105.291603 100.75543 104.331603 101.89543 103.711603 103.04543M 117.771603 93.33543C 115.331603 94.31543 113.151603 95.34543 111.291603 96.39543M 135.321603 87.96543C 131.951603 88.76543 128.751603 89.61543 125.841603 90.50543M 157.811603 83.82543C 153.751603 84.39543 149.791603 85.04543 146.041603 85.72543M 183.751603 81.10543C 179.231603 81.43543 174.761603 81.82543 170.441603 82.27543M 211.601603 79.93543C 206.901603 79.99543 202.171603 80.12543 197.551603 80.32543M 239.351603 79.44543C 234.841603 79.64543 230.221603 79.77543 225.601603 79.84543M 265.261603 77.51543C 261.221603 77.95543 256.981603 78.33543 252.671603 78.65543M 287.291603 74.26543C 284.041603 74.90543 280.541603 75.49543 276.881603 76.03543M 303.791603 69.99543C 301.571603 70.76543 299.061603 71.52543 296.311603 72.23543M 313.671603 65.08543C 312.611603 65.93543 311.241603 66.78543 309.601603 67.59543M 316.461603 59.92543C 316.581603 60.78543 316.411603 61.65543 315.951603 62.50543M 312.391603 54.90543C 313.611603 55.70543 314.571603 56.54543 315.251603 57.37543M 302.041603 50.36543C 304.241603 51.06543 306.231603 51.80543 307.951603 52.56543M 286.351603 46.55543C 289.341603 47.11543 292.181603 47.71543 294.791603 48.35543M 266.541603 43.69543C 270.101603 44.08543 273.581603 44.52543 276.881603 44.99543M 243.891603 41.92543C 247.821603 42.12543 251.721603 42.37543 255.491603 42.66543M 219.791603 41.33543L 219.941603 41.33543C 223.951603 41.33543 227.981603 41.38543 231.931603 41.47543M 195.411603 40.72543C 199.341603 40.92543 203.391603 41.07543 207.461603 41.18543M 173.141603 38.95543C 176.571603 39.33543 180.181603 39.68543 183.891603 39.97543M 154.761603 36.18543C 157.421603 36.71543 160.311603 37.21543 163.371603 37.67543M 141.591603 32.68543C 143.291603 33.31543 145.271603 33.92543 147.461603 34.50543M 134.491603 28.74543C 135.141603 29.42543 136.071603 30.09543 137.251603 30.75543M 133.741603 24.66543C 133.641603 24.83543 133.561603 25.00543 133.491603 25.18543C 133.301603 25.68543 133.241603 26.19543 133.331603 26.70543M 149.801603 17.26543C 147.591603 17.80543 145.571603 18.36543 143.781603 18.94543M 165.121603 14.39543C 162.261603 14.81543 159.511603 15.26543 156.961603 15.73543M 183.861603 12.31543C 180.531603 12.58543 177.251603 12.90543 174.131603 13.25543M 394.261603 442.71543C 390.768603 445.82743 386.821703 448.88903 382.496103 451.84013"></path></g></g></g><g id="g-root-1.cu_sy_1d0inbf1knhs7c-stroke" data-item-order="-217360" transform="translate(235, 399)"><g id="1.cu_sy_1d0inbf1knhs7c-stroke" fill="none" stroke-linecap="round" stroke-linejoin="round" stroke-miterlimit="4" stroke="#484848" stroke-width="2"><g><path d="M 10.0011 46.2732C 10.0011 26.2399 26.0941 10 45.9463 10L 46.0537 10C 65.9059 10 81.9989 26.2399 81.9989 46.2732L 82 46.2732C 82 72.8129 46 98 46 98C 46 98 10 72.8129 10 46.2732L 10.0011 46.2732Z"></path></g></g></g><g id="g-root-2.cu_sy_1d0inbf1knhs7d-stroke" data-item-order="-217356" transform="translate(543, 297)"><g id="2.cu_sy_1d0inbf1knhs7d-stroke" fill="none" stroke-linecap="round" stroke-linejoin="round" stroke-miterlimit="4" stroke="#484848" stroke-width="2"><g><path d="M 10 40.5024C 10 23.6562 23.4109 10 39.9544 10L 40.0439 10C 56.5874 10 69.9982 23.6562 69.9982 40.5024C 69.9982 62.8199 39.9991 84 39.9991 84C 39.9991 84 10 62.8199 10 40.5024Z"></path></g></g></g><g id="g-root-3.cu_sy_1d0inbf1knhs7e-stroke" data-item-order="-217352" transform="translate(345, 189)"><g id="3.cu_sy_1d0inbf1knhs7e-stroke" fill="none" stroke-linecap="round" stroke-linejoin="round" stroke-miterlimit="4" stroke="#484848" stroke-width="2"><g><path d="M 10 28.2396C 10 18.1661 18.0465 10 27.9726 10L 28.0263 10C 37.9524 10 45.9989 18.1661 45.9989 28.2396C 45.9989 41.5849 27.9995 54.25 27.9995 54.25C 27.9995 54.25 10 41.5849 10 28.2396Z"></path></g></g></g><g id="g-root-tx_decrease_1d1rlhn1knhudk-stroke" data-item-order="0" transform="translate(135, 87)"></g><g id="g-root-tx_cutdatac_hyeljf1knhszp-stroke" data-item-order="0" transform="translate(135, 147)"></g><g id="g-root-tx_reduceal_1qd83uz1knhssn-stroke" data-item-order="0" transform="translate(639, 255)"></g><g id="g-root-tx_simplifi_v98mtn1knhukk-stroke" data-item-order="0" transform="translate(639, 315)"></g><g id="g-root-tx_implemen_4my3631knhukm-stroke" data-item-order="0" transform="translate(15, 399)"></g><g id="g-root-tx_initiate_18kp56z1knhszn-stroke" data-item-order="0" transform="translate(27, 459)"></g></g></g></svg>