<?xml version="1.0" encoding="utf-8" standalone="yes"?>
<!DOCTYPE svg PUBLIC "-//W3C//DTD SVG 1.1//EN" "http://www.w3.org/Graphics/SVG/1.1/DTD/svg11.dtd">
<svg width="756" height="393" viewBox="0 0 756 393" style="fill:none;stroke:none;fill-rule:evenodd;clip-rule:evenodd;stroke-linecap:round;stroke-linejoin:round;stroke-miterlimit:1.5;" version="1.1" xmlns="http://www.w3.org/2000/svg" xmlns:xlink="http://www.w3.org/1999/xlink"><style id="fontImports">@import url("https://fonts.googleapis.com/css2?family=Shantell+Sans:wght@300..800&amp;display=block");</style><g id="items" style="isolation: isolate"><g id="blend" style="mix-blend-mode:normal"><g id="g-root--1.Vector_sy_qu1s2qlon5zg-fill" data-item-order="1999814379" transform="translate(41, 58.9658203125)"><g id="-1.Vector_sy_qu1s2qlon5zg-fill" stroke="none" fill="#d1f4ff"><g><path d="M 240.856171 16.250706L 240.856171 48.476028L 235.359589 48.476028L 235.359589 64.965752L 240.856171 64.965752L 240.856171 108.938354L 235.359589 108.938354L 235.359589 125.428078L 240.856171 125.428078L 240.856171 159.489441C 226.981888 157.04715 219.18959 159.264084 211.803101 161.366531C 210.988693 161.597366 210.180695 161.827316 209.369034 162.049942C 195.353683 165.890198 193.8293 165.437668 178.368347 160.848938C 175.74556 160.070251 172.722458 159.17247 169.168915 158.157425C 154.74408 154.034103 142.46196 155.83696 131.90213 157.386093C 124.523895 158.468903 117.985725 159.42807 112.144691 158.157425C 110.787041 157.862457 109.077606 157.421829 107.138237 156.922531C 99.446419 154.941025 88.123833 152.025085 80.643364 153.483521C 76.820862 154.229218 73.772186 155.658325 70.602951 157.143311C 66.006165 159.297958 61.155807 161.571732 53.322727 162.049942C 43.929718 162.624313 38.562405 161.622116 33.494106 160.675797C 31.421986 160.289185 29.399797 159.911758 27.172951 159.654327C 16.737795 158.451508 10.000007 158.157425 10.000007 158.157425L 10 10.858298C 18.976824 8.486885 28.952377 11.473632 35.369167 14.427487C 38.491405 15.864758 54.493587 19.497257 67.373344 15.525165C 80.253105 11.553156 84.165565 10.858298 95.864937 10.858298C 99.990944 10.858298 104.605225 11.89816 109.859032 13.082294C 119.5037 15.255924 131.306686 17.915895 146.213379 15.525165C 152.335648 14.543201 157.0224 15.096248 162.278961 15.716628C 169.85141 16.610275 178.606537 17.643356 194.538361 14.427487C 195.085266 14.316917 195.659668 14.195081 196.263367 14.067191C 202.818039 12.67693 212.767761 10.566608 228.493454 14.427487C 233.162796 15.573894 237.140488 16.096899 240.856171 16.250706ZM 482.705505 162.212982L 482.705505 125.600296L 488.213074 125.600296L 488.213074 109.107834L 482.705505 109.107834L 482.705505 65.127541L 488.213074 65.127541L 488.213074 48.63488L 482.705505 48.63488L 482.705505 16.525173C 489.325226 17.646473 498.879181 18.22352 507.147888 15.678061C 518.66687 12.132034 521.357422 11.955597 531.629639 11.281902C 532.865417 11.200828 534.212097 11.112512 535.696167 11.01037C 542.684082 10.529146 548.683655 11.973001 555.050537 13.505074C 563.637939 15.571979 572.893311 17.799454 586.144653 15.678061C 592.278809 14.695917 596.975647 15.249047 602.242249 15.869525C 609.830322 16.763269 618.601929 17.796618 634.56488 14.580119C 635.113647 14.469633 635.689819 14.347796 636.293579 14.219809C 642.862 12.829268 652.830872 10.718583 668.588684 14.580119C 679.484741 17.250532 686.617432 16.538816 695.448608 15.657625C 700.563171 15.147269 706.247559 14.580119 713.561646 14.580119L 713.561646 162.229477C 713.561646 162.229477 697.918396 162.827698 681.884888 159.832977C 667.411499 157.129593 659.425903 159.397827 651.864441 161.545151C 651.049133 161.776947 650.239258 162.006851 649.425781 162.229477C 635.382935 166.069763 633.854858 165.617203 618.362793 161.027557C 615.735413 160.248886 612.705872 159.351105 609.145935 158.336075C 594.692749 154.211823 582.385864 156.014694 571.804993 157.564713C 564.412109 158.647537 557.861084 159.606689 552.008179 158.336075C 550.647705 158.040176 548.935608 157.600433 546.991638 157.100266C 539.284485 155.118744 527.939575 152.201904 520.444092 153.66124C 516.613831 154.406937 513.55957 155.836044 510.383514 157.32196C 505.778259 159.476608 500.91748 161.750351 493.069275 162.229477C 488.945007 162.480499 485.594849 162.430099 482.705505 162.212982Z"></path></g></g></g><g id="g-root--1.cu_sy_qu1s2qlon5zh-fill" data-item-order="1999814382" transform="translate(41, 58.9658203125)"></g><g id="g-root--1.cu_1_sy_me89yalon6rq-fill" data-item-order="1999814383" transform="translate(282.8493347167969, 36.9794921875)"><g id="-1.cu_1_sy_me89yalon6rq-fill" stroke="none" fill="#ebebeb"><g><path d="M 10.000032 9.999992L 113.976898 9.999992L 113.976898 26.489719L 105.273987 26.489719L 119.473473 42.979446L 133.672958 26.489719L 124.970047 26.489719L 124.970047 9.999992L 229.863037 9.999992L 229.863037 207.876709L 124.970047 207.876709L 124.970047 174.897263L 113.976898 174.897263L 113.976898 207.876709L 10.000005 207.876709L 10.000032 9.999992Z"></path></g></g></g><g id="g-root--1.cu_2_sy_me89yalon6rr-fill" data-item-order="1999814385" transform="translate(266.3595886230469, 36.9794921875)"><g id="-1.cu_2_sy_me89yalon6rr-fill" stroke="none" fill="#ebebeb"><g><path d="M 246.352737 191.386978L 246.352737 147.414383L 257.345886 147.414383L 257.345886 191.386978L 246.352737 191.386978ZM 246.352737 130.924652L 246.352737 86.952049L 257.345886 86.952049L 257.345886 130.924652L 246.352737 130.924652ZM 246.352737 70.462326L 246.352737 26.489719L 257.345886 26.489719L 257.345886 70.462326L 246.352737 70.462326ZM 26.489719 26.489719L 26.489719 70.462326L 15.496569 70.462326L 15.496569 26.489719L 26.489719 26.489719ZM 26.489719 86.952049L 26.489719 130.924652L 15.496569 130.924652L 15.496569 86.952049L 26.489719 86.952049ZM 26.489719 147.414383L 26.489719 191.386978L 15.496569 191.386978L 15.496569 147.414383L 26.489719 147.414383ZM 246.352737 147.414383L 246.352737 130.924652L 262.842468 130.924652L 262.842468 147.414383L 246.352737 147.414383ZM 246.352737 86.952049L 246.352737 70.462326L 262.842468 70.462326L 262.842468 86.952049L 246.352737 86.952049ZM 246.352737 26.489719L 246.352737 9.999992L 262.842468 9.999992L 262.842468 26.489719L 246.352737 26.489719ZM 26.489719 9.999992L 26.489719 26.489719L 9.999992 26.489719L 9.999992 9.999992L 26.489719 9.999992ZM 246.352737 207.876709L 246.352737 191.386978L 262.842468 191.386978L 262.842468 207.876709L 246.352737 207.876709ZM 26.489719 70.462326L 26.489719 86.952049L 9.999992 86.952049L 9.999992 70.462326L 26.489719 70.462326ZM 26.489719 130.924652L 26.489719 147.414383L 9.999992 147.414383L 9.999992 130.924652L 26.489719 130.924652ZM 26.489719 191.386978L 26.489719 207.876709L 9.999992 207.876709L 9.999992 191.386978L 26.489719 191.386978Z"></path></g></g></g><g id="g-root--1.cu_3_sy_me89yalon6rs-fill" data-item-order="1999814387" transform="translate(378.123291015625, 4)"><g id="-1.cu_3_sy_me89yalon6rs-fill" stroke="none" fill="#7f9a44"><g><path d="M 29.696077 9.999998L 29.696077 59.469181L 38.398991 59.469181L 24.199501 75.958908L 10.000014 59.469181L 18.702927 59.469181L 18.702927 9.999998L 29.696077 9.999998Z"></path></g></g></g><g id="g-root--1.cu_4_sy_hz18wylon4e9-fill" data-item-order="1999814389" transform="translate(378.123291015625, 201.876708984375)"><g id="-1.cu_4_sy_hz18wylon4e9-fill" stroke="none" fill="#7f9a44"><g><path d="M 29.696077 9.999988L 29.696077 59.46917L 38.398991 59.46917L 24.199501 75.9589L 10.000014 59.46917L 18.702927 59.46917L 18.702927 9.999988L 29.696077 9.999988Z"></path></g></g></g><g id="g-root-tx_inconsis_1ut1s9ulon6kr-fill" data-item-order="2000000000" transform="translate(84.9315185546875, 87.91796875)"><g id="tx_inconsis_1ut1s9ulon6kr-fill" stroke="none" fill="#333333"><g><text style="font-style: normal; font-variant-caps: normal; font-weight: normal; font-stretch: normal; font-size: 20px; line-height: normal; font-family: Calibri;Shantell Sans&quot;, cursive; font-size-adjust: none; font-kerning: auto; font-variant-alternates: normal; font-variant-ligatures: normal; font-variant-numeric: normal; font-variant-east-asian: normal; font-variant-position: normal; font-variant-emoji: normal; font-feature-settings: normal; font-optical-sizing: auto; font-variation-settings: normal; white-space: pre;"><tspan x="11.87" y="35" dominant-baseline="ideographic">Inconsistent </tspan><tspan x="30.87" y="59" dominant-baseline="ideographic">property </tspan><tspan x="16.87" y="83" dominant-baseline="ideographic">transaction </tspan><tspan x="23.87" y="107" dominant-baseline="ideographic">addresses</tspan></text></g></g></g><g id="g-root-tx_implemen_hz18wylon4ea-fill" data-item-order="2000000000" transform="translate(302.78082275390625, 87.91796875)"><g id="tx_implemen_hz18wylon4ea-fill" stroke="none" fill="#333333"><g><text style="font-style: normal; font-variant-caps: normal; font-weight: normal; font-stretch: normal; font-size: 20px; line-height: normal; font-family: Calibri;Shantell Sans&quot;, cursive; font-size-adjust: none; font-kerning: auto; font-variant-alternates: normal; font-variant-ligatures: normal; font-variant-numeric: normal; font-variant-east-asian: normal; font-variant-position: normal; font-variant-emoji: normal; font-feature-settings: normal; font-optical-sizing: auto; font-variation-settings: normal; white-space: pre;"><tspan x="43.73" y="35" dominant-baseline="ideographic">Implement </tspan><tspan x="17.73" y="59" dominant-baseline="ideographic">automated data </tspan><tspan x="55.73" y="83" dominant-baseline="ideographic">cleaning </tspan><tspan x="44.73" y="107" dominant-baseline="ideographic">techniques</tspan></text></g></g></g><g id="g-root-tx_accurate_1hi7qzmlon4zw-fill" data-item-order="2000000000" transform="translate(308.78082275390625, 286.801513671875)"><g id="tx_accurate_1hi7qzmlon4zw-fill" stroke="none" fill="#333333"><g><text style="font-style: normal; font-variant-caps: normal; font-weight: normal; font-stretch: normal; font-size: 20px; line-height: normal; font-family: Calibri;Shantell Sans&quot;, cursive; font-size-adjust: none; font-kerning: auto; font-variant-alternates: normal; font-variant-ligatures: normal; font-variant-numeric: normal; font-variant-east-asian: normal; font-variant-position: normal; font-variant-emoji: normal; font-feature-settings: normal; font-optical-sizing: auto; font-variation-settings: normal; white-space: pre;"><tspan x="25.87" y="35" dominant-baseline="ideographic">Accurate and </tspan><tspan x="12.87" y="59" dominant-baseline="ideographic">reliable address </tspan><tspan x="53.87" y="83" dominant-baseline="ideographic">records</tspan></text></g></g></g><g id="g-root--1.Vector_sy_qu1s2qlon5zg-stroke" data-item-order="1999814379" transform="translate(41, 58.9658203125)"></g><g id="g-root--1.cu_sy_qu1s2qlon5zh-stroke" data-item-order="1999814382" transform="translate(41, 58.9658203125)"><g id="-1.cu_sy_qu1s2qlon5zh-stroke" fill="none" stroke-linecap="butt" stroke-linejoin="miter" stroke-miterlimit="4" stroke="#1ac6ff" stroke-width="2"><g><path d="M 240.856171 159.489639C 226.981995 157.047241 219.189774 159.264282 211.802658 161.36618C 210.989059 161.59758 210.18042 161.827698 209.369141 162.049942C 195.353973 165.890213 193.8293 165.437668 178.367996 160.848663L 178.366791 160.848297L 178.363129 160.847183C 175.741821 160.069168 172.719894 159.172195 169.168732 158.157272C 154.744156 154.03447 142.462341 155.8367 131.901947 157.386383C 124.52372 158.469025 117.985909 159.428329 112.144691 158.157547C 110.786766 157.862091 109.077972 157.421997 107.138237 156.922379C 99.446777 154.941315 88.123833 152.025009 80.643364 153.483719C 76.820862 154.229141 73.772186 155.658051 70.602951 157.143524C 66.006165 159.298172 61.155807 161.571548 53.322727 162.050201C 43.929718 162.624161 38.562405 161.62204 33.494106 160.675812C 31.422171 160.28894 29.399612 159.911316 27.172951 159.654709C 16.737795 158.451874 10 158.157547 10 158.157547M 10 10.858297C 18.976824 8.486884 28.952377 11.473631 35.369167 14.427487C 38.491405 15.864758 54.493587 19.497257 67.373344 15.525164C 80.253105 11.553155 84.165565 10.858297 95.864937 10.858297C 99.990944 10.858297 104.604767 11.898159 109.859314 13.082293C 119.503784 15.255923 131.306686 17.915895 146.212936 15.525164C 152.335571 14.543201 157.022583 15.096247 162.279144 15.716627C 169.851776 16.610273 178.606354 17.643356 194.537903 14.427487C 195.085449 14.316916 195.659943 14.19508 196.263092 14.067191C 202.818039 12.676929 212.767761 10.566607 228.493637 14.427487C 233.163162 15.573893 237.140213 16.096899 240.856171 16.250704M 482.705505 16.525173C 489.325562 17.646473 498.878906 18.22352 507.147888 15.678061C 518.666992 12.132033 521.357727 11.955596 531.6297 11.281902L 531.631348 11.281804C 532.866943 11.200728 534.212524 11.112511 535.696045 11.010369C 542.684509 10.529145 548.684021 11.973 555.05011 13.505073C 563.638184 15.571978 572.893494 17.799454 586.144165 15.678061C 592.279114 14.695916 596.975342 15.249046 602.242371 15.869525C 609.830017 16.763269 618.60199 17.796616 634.565247 14.580118C 635.113892 14.469632 635.689575 14.347697 636.293884 14.219809C 642.862 12.829268 652.831299 10.718582 668.58844 14.580118C 679.485107 17.250532 686.617798 16.538816 695.448975 15.657624C 700.563354 15.147268 706.247192 14.580118 713.561646 14.580118M 713.561646 162.229126C 713.561646 162.229126 697.918762 162.828079 681.884766 159.833176C 667.411194 157.129684 659.426025 159.397552 651.86438 161.545151L 651.859924 161.546356C 651.046265 161.777481 650.237427 162.007141 649.425964 162.229126C 635.382935 166.070038 633.855164 165.617401 618.363281 161.027557C 615.735596 160.249069 612.705872 159.351486 609.145691 158.335724C 594.692444 154.212204 582.386047 156.014694 571.80481 157.564636C 564.41217 158.647461 557.860901 159.606979 552.00824 158.335999C 550.64801 158.040543 548.93634 157.600555 546.99353 157.101105L 546.991455 157.100555C 539.284729 155.119125 527.939575 152.202362 520.444336 153.661331C 516.614136 154.40686 513.559326 155.83606 510.38385 157.321777C 505.777924 159.476807 500.917938 161.750641 493.069275 162.229324C 488.944763 162.480881 485.594971 162.429749 482.705505 162.213196M 566.129883 147.164429C 564.054932 147.427444 562.051514 147.631454 560.115662 147.720886L 566.129883 147.164429ZM 663.712463 147.720886C 660.830566 148.035645 658.266541 148.57338 655.847656 149.188736L 663.712463 147.720886ZM 35.325043 26.39761C 38.441784 27.836082 54.416206 31.471699 67.273613 27.496294C 80.130928 23.520887 85.119896 22.825386 95.715553 22.825386M 168.891907 147.338318C 144.43187 140.328995 126.143951 150.430954 111.967087 147.338577C 105.236443 145.870438 89.871315 140.83255 80.520546 142.660721C 77.614693 143.228882 75.156708 144.19371 72.752602 145.278198M 194.217026 26.39761C 200.703537 25.084944 210.970505 22.177889 228.113586 26.39761M 64.04969 149.080185C 61.062477 150.136795 57.620621 150.966614 53.24736 151.234467M 104.35791 23.741484C 105.579338 23.772181 108.571945 24.089968 110.770576 25.115641M 240.398148 149.080185C 236.275711 148.362137 226.015442 147.35672 217.953796 149.080185M 211.999176 151.234467C 211.999176 151.234467 208.976059 152.086517 207.87674 152.452972M 190.012878 27.496294C 188.638733 27.924204 185.249176 28.780024 182.684113 28.780024M 551.870789 147.164429C 545.128479 145.697495 529.736572 140.664001 520.369507 142.490601C 511.00238 144.3172 506.282166 150.248474 493.048798 151.057114M 535.591003 21.85149C 547.748352 21.85149 562.911499 30.211704 585.939026 26.518356M 649.095215 151.056824C 632.70282 155.548462 633.397522 154.167526 608.894897 147.164139M 713.103699 25.420679C 693.198608 25.420679 685.392639 29.636852 668.219727 25.420679C 660.510986 23.52813 654.190186 23.07036 648.976929 23.259253M 634.263977 25.420679C 636.422424 24.984997 638.998535 24.37359 642.106262 23.905745M 522.097656 22.616884C 524.134521 22.294874 526.171509 22.098923 528.510315 21.985977"></path></g></g></g><g id="g-root--1.cu_1_sy_me89yalon6rq-stroke" data-item-order="1999814383" transform="translate(282.8493347167969, 36.9794921875)"><g id="-1.cu_1_sy_me89yalon6rq-stroke" fill="none" stroke-linecap="butt" stroke-linejoin="miter" stroke-miterlimit="4" stroke="#bcbcbc" stroke-width="2"><g><path d="M 10.000005 9.999992L 113.976898 9.999992M 124.970047 9.999992L 229.863037 9.999992M 229.863037 207.876709L 124.970047 207.876709M 113.976898 207.876709L 10.000005 207.876709"></path></g></g></g><g id="g-root--1.cu_2_sy_me89yalon6rr-stroke" data-item-order="1999814385" transform="translate(266.3595886230469, 36.9794921875)"><g id="-1.cu_2_sy_me89yalon6rr-stroke" fill="none" stroke-linecap="butt" stroke-linejoin="miter" stroke-miterlimit="4" stroke="#bcbcbc" stroke-width="2"><g><path d="M 246.352737 191.386978L 246.352737 147.414383L 257.345886 147.414383L 257.345886 191.386978L 246.352737 191.386978ZM 246.352737 130.924652L 246.352737 86.952049L 257.345886 86.952049L 257.345886 130.924652L 246.352737 130.924652ZM 246.352737 70.462326L 246.352737 26.489719L 257.345886 26.489719L 257.345886 70.462326L 246.352737 70.462326ZM 26.489719 26.489719L 26.489719 70.462326L 15.496569 70.462326L 15.496569 26.489719L 26.489719 26.489719ZM 26.489719 86.952049L 26.489719 130.924652L 15.496569 130.924652L 15.496569 86.952049L 26.489719 86.952049ZM 26.489719 147.414383L 26.489719 191.386978L 15.496569 191.386978L 15.496569 147.414383L 26.489719 147.414383ZM 246.352737 147.414383L 246.352737 130.924652L 262.842468 130.924652L 262.842468 147.414383L 246.352737 147.414383ZM 246.352737 86.952049L 246.352737 70.462326L 262.842468 70.462326L 262.842468 86.952049L 246.352737 86.952049ZM 246.352737 26.489719L 246.352737 9.999992L 262.842468 9.999992L 262.842468 26.489719L 246.352737 26.489719ZM 26.489719 9.999992L 26.489719 26.489719L 9.999992 26.489719L 9.999992 9.999992L 26.489719 9.999992ZM 246.352737 207.876709L 246.352737 191.386978L 262.842468 191.386978L 262.842468 207.876709L 246.352737 207.876709ZM 26.489719 70.462326L 26.489719 86.952049L 9.999992 86.952049L 9.999992 70.462326L 26.489719 70.462326ZM 26.489719 130.924652L 26.489719 147.414383L 9.999992 147.414383L 9.999992 130.924652L 26.489719 130.924652ZM 26.489719 191.386978L 26.489719 207.876709L 9.999992 207.876709L 9.999992 191.386978L 26.489719 191.386978Z"></path></g></g></g><g id="g-root--1.cu_3_sy_me89yalon6rs-stroke" data-item-order="1999814387" transform="translate(378.123291015625, 4)"><g id="-1.cu_3_sy_me89yalon6rs-stroke" fill="none" stroke-linecap="butt" stroke-linejoin="miter" stroke-miterlimit="4" stroke="#a8dd38" stroke-width="2"><g><path d="M 29.696077 9.999998L 29.696077 59.469181L 38.398991 59.469181L 24.199501 75.958908L 10.000014 59.469181L 18.702927 59.469181L 18.702927 9.999998L 29.696077 9.999998Z"></path></g></g></g><g id="g-root--1.cu_4_sy_hz18wylon4e9-stroke" data-item-order="1999814389" transform="translate(378.123291015625, 201.876708984375)"><g id="-1.cu_4_sy_hz18wylon4e9-stroke" fill="none" stroke-linecap="butt" stroke-linejoin="miter" stroke-miterlimit="4" stroke="#a8dd38" stroke-width="2"><g><path d="M 29.696077 9.999988L 29.696077 59.46917L 38.398991 59.46917L 24.199501 75.9589L 10.000014 59.46917L 18.702927 59.46917L 18.702927 9.999988L 29.696077 9.999988Z"></path></g></g></g><g id="g-root-tx_inconsis_1ut1s9ulon6kr-stroke" data-item-order="2000000000" transform="translate(84.9315185546875, 87.91796875)"></g><g id="g-root-tx_implemen_hz18wylon4ea-stroke" data-item-order="2000000000" transform="translate(302.78082275390625, 87.91796875)"></g><g id="g-root-tx_accurate_1hi7qzmlon4zw-stroke" data-item-order="2000000000" transform="translate(308.78082275390625, 286.801513671875)"></g></g></g></svg>
