<?xml version="1.0" encoding="utf-8" standalone="yes"?>
<!DOCTYPE svg PUBLIC "-//W3C//DTD SVG 1.1//EN" "http://www.w3.org/Graphics/SVG/1.1/DTD/svg11.dtd">
<svg width="985" height="518" viewBox="0 0 985 518" style="fill:none;stroke:none;fill-rule:evenodd;clip-rule:evenodd;stroke-linecap:round;stroke-linejoin:round;stroke-miterlimit:1.5;" version="1.1" xmlns="http://www.w3.org/2000/svg" xmlns:xlink="http://www.w3.org/1999/xlink"><style id="fontImports">@import url("https://fonts.googleapis.com/css2?family=Roboto:wght@400;700&amp;display=block");</style><g id="items" style="isolation: isolate"><g id="blend" style="mix-blend-mode:normal"><g id="g-root--1.cu_sy_vai0tul4tkb0-fill" data-item-order="-389692" transform="translate(312.5789489746094, 157.187744140625)"><g id="-1.cu_sy_vai0tul4tkb0-fill" stroke="none" fill="#a3a3a3"><g><path d="M 98.95443 9.999998L 15.930295 9.999998L 10 81.163528L 104.88472 81.163528L 98.95443 9.999998Z"></path></g></g></g><g id="g-root--1.cu_1_sy_quoipel4tl39-fill" data-item-order="-389688" transform="translate(306.6486511230469, 228.351318359375)"><g id="-1.cu_1_sy_quoipel4tl39-fill" stroke="none" fill="#fd6a65"><g><path d="M 116.745316 81.163528L 110.815018 9.99999L 15.930303 9.99999L 10.000008 81.163528L 116.745316 81.163528Z"></path></g></g></g><g id="g-root--1.cu_2_sy_quoipel4tl3a-fill" data-item-order="-389684" transform="translate(300.7183532714844, 299.514892578125)"><g id="-1.cu_2_sy_quoipel4tl3a-fill" stroke="none" fill="#a3a3a3"><g><path d="M 128.605896 81.163536L 122.675598 9.999997L 15.93029 9.999997L 9.999996 81.163536L 128.605896 81.163536Z"></path></g></g></g><g id="g-root--1.cu_3_sy_quoipel4tl3b-fill" data-item-order="-389680" transform="translate(295.77655029296875, 370.67822265625)"><g id="-1.cu_3_sy_quoipel4tl3b-fill" stroke="none" fill="#fd6a65"><g><path d="M 133.547791 9.999995L 139.478088 81.163528L 26.802605 81.163528L 14.942016 69.30294L 9.999998 69.30294L 14.94191 9.999995L 133.547791 9.999995Z"></path></g></g></g><g id="g-root--1.cu_4_sy_mev0kyl4tlvk-fill" data-item-order="-389676" transform="translate(324.4394836425781, 14.8603515625)"><g id="-1.cu_4_sy_mev0kyl4tlvk-fill" stroke="none" fill="#ffe60a"><g><path d="M 81.163536 98.954826L 81.163536 51.512577L 626.75061 10L 626.75061 140.466461L 81.163536 98.954826ZM 10.000003 39.651501L 81.163536 39.651501L 81.163536 110.815033L 10.000003 110.815033L 10.000003 39.651501Z"></path></g></g></g><g id="g-root--1.cu_5_sy_mev0kyl4tlvl-fill" data-item-order="-389672" transform="translate(324.4395446777344, 115.675537109375)"><g id="-1.cu_5_sy_mev0kyl4tlvl-fill" stroke="none" fill="#a3a3a3"><g><path d="M 9.999998 9.999997L 81.163536 9.999997L 81.163536 27.790886L 9.999998 27.790886L 9.999998 9.999997Z"></path></g></g></g><g id="g-root--1.cu_6_sy_mev0kyl4tlvm-fill" data-item-order="-389669" transform="translate(312.5789489746094, 3)"></g><g id="g-root--1.cu_7_sy_djuhf6l4tjij-fill" data-item-order="-389668" transform="translate(306.6486511230469, 20.791015625)"><g id="-1.cu_7_sy_djuhf6l4tjij-fill" stroke="none" fill="#fd6a65"><g><path d="M 15.930303 33.721184L 110.815018 33.721184L 63.372662 10.000003L 15.930303 33.721184ZM 15.930303 134.536194L 110.815018 134.536194L 104.884727 146.39679L 21.860598 146.39679L 15.930303 134.536194ZM 10.000008 122.675613L 116.745316 122.675613L 116.745316 134.536194L 10.000008 134.536194L 10.000008 122.675613Z"></path></g></g></g><g id="g-root--1.cu_8_sy_djuhf6l4tjik-fill" data-item-order="-389665" transform="translate(3, 459.6328125)"></g><g id="g-root--1.cu_9_sy_djuhf6l4tjil-fill" data-item-order="-389663" transform="translate(169.26348876953125, 489.2841796875)"></g><g id="g-root-tx_document_qwjxyql4tk3u-fill" data-item-order="0" transform="translate(490.48779296875, 38.093505859375)"><g id="tx_document_qwjxyql4tk3u-fill" stroke="none" fill="#333333"><g><text style="font-style: normal; font-variant-caps: normal; font-weight: normal; font-stretch: normal; font-size: 30px; line-height: normal; font-family: Calibri, sans-serif; font-size-adjust: none; font-kerning: auto; font-variant-alternates: normal; font-variant-ligatures: normal; font-variant-numeric: normal; font-variant-east-asian: normal; font-variant-position: normal; font-variant-emoji: normal; font-feature-settings: normal; font-optical-sizing: auto; font-variation-settings: normal; white-space: pre;"><tspan x="12" y="69" dominant-baseline="ideographic">Academic &amp; Policy Goals</tspan></text></g></g></g><g id="g-root-uplo_v47yk2lem51m-fill" data-item-order="0" transform="translate(336.02130126953125, 55.89013671875)"></g><g id="g-root-map_ddkf5elehyj0-fill" data-item-order="0" transform="translate(336.02130126953125, 168.565673828125)"></g><g id="g-root-tx_enhanceg_147dz8yl4tlop-fill" data-item-order="0" transform="translate(490.48779296875, 180.76953125)"><g id="tx_enhanceg_147dz8yl4tlop-fill" stroke="none" fill="#333333"><g><text style="font-style: normal; font-variant-caps: normal; font-weight: normal; font-stretch: normal; font-size: 20px; line-height: normal; font-family: Calibri, sans-serif; font-size-adjust: none; font-kerning: auto; font-variant-alternates: normal; font-variant-ligatures: normal; font-variant-numeric: normal; font-variant-east-asian: normal; font-variant-position: normal; font-variant-emoji: normal; font-feature-settings: normal; font-optical-sizing: auto; font-variation-settings: normal; white-space: pre;"><tspan x="12" y="34" dominant-baseline="ideographic">Enhance Geolocation Steps</tspan></text></g></g></g><g id="g-root-page_1qd78aalef66j-fill" data-item-order="0" transform="translate(336.02130126953125, 239.729248046875)"></g><g id="g-root-tx_improved_1hiuhmal4tk3s-fill" data-item-order="0" transform="translate(490.48779296875, 251.93310546875)"><g id="tx_improved_1hiuhmal4tk3s-fill" stroke="none" fill="#333333"><g><text style="font-style: normal; font-variant-caps: normal; font-weight: normal; font-stretch: normal; font-size: 20px; line-height: normal; font-family: Calibri, sans-serif; font-size-adjust: none; font-kerning: auto; font-variant-alternates: normal; font-variant-ligatures: normal; font-variant-numeric: normal; font-variant-east-asian: normal; font-variant-position: normal; font-variant-emoji: normal; font-feature-settings: normal; font-optical-sizing: auto; font-variation-settings: normal; white-space: pre;"><tspan x="12" y="34" dominant-baseline="ideographic">Improve Data Granularity</tspan></text></g></g></g><g id="g-root-buil_v9u8c2ledreo-fill" data-item-order="0" transform="translate(336.02130126953125, 310.892822265625)"></g><g id="g-root-tx_supportp_1utoiwil4tlon-fill" data-item-order="0" transform="translate(490.48779296875, 311.0966796875)"><g id="tx_supportp_1utoiwil4tlon-fill" stroke="none" fill="#333333"><g><text style="font-style: normal; font-variant-caps: normal; font-weight: normal; font-stretch: normal; font-size: 20px; line-height: normal; font-family: Calibri, sans-serif; font-size-adjust: none; font-kerning: auto; font-variant-alternates: normal; font-variant-ligatures: normal; font-variant-numeric: normal; font-variant-east-asian: normal; font-variant-position: normal; font-variant-emoji: normal; font-feature-settings: normal; font-optical-sizing: auto; font-variation-settings: normal; white-space: pre;"><tspan x="12" y="34" dominant-baseline="ideographic">better-informed policy </tspan><tspan x="12" y="58" dominant-baseline="ideographic">decisions</tspan></text></g></g></g><g id="g-root-chec_dg2bhuledpfk-fill" data-item-order="0" transform="translate(336.02130126953125, 382.056396484375)"></g><g id="g-root-tx_publishw_940zaql4tkau-fill" data-item-order="0" transform="translate(490.48779296875, 394.260009765625)"><g id="tx_publishw_940zaql4tkau-fill" stroke="none" fill="#333333"><g><text style="font-style: normal; font-variant-caps: normal; font-weight: normal; font-stretch: normal; font-size: 20px; line-height: normal; font-family: Calibri, sans-serif; font-size-adjust: none; font-kerning: auto; font-variant-alternates: normal; font-variant-ligatures: normal; font-variant-numeric: normal; font-variant-east-asian: normal; font-variant-position: normal; font-variant-emoji: normal; font-feature-settings: normal; font-optical-sizing: auto; font-variation-settings: normal; white-space: pre;"><tspan x="12" y="34" dominant-baseline="ideographic">Publish Working Paper</tspan></text></g></g></g><g id="g-root--1.cu_sy_vai0tul4tkb0-stroke" data-item-order="-389692" transform="translate(312.5789489746094, 157.187744140625)"><g id="-1.cu_sy_vai0tul4tkb0-stroke" fill="none" stroke-linecap="round" stroke-linejoin="round" stroke-miterlimit="4" stroke="#ffffff" stroke-width="2"><g><path d="M 15.930295 9.999998L 98.95443 9.999998L 104.88472 81.163528L 10 81.163528L 15.930295 9.999998Z"></path></g></g></g><g id="g-root--1.cu_1_sy_quoipel4tl39-stroke" data-item-order="-389688" transform="translate(306.6486511230469, 228.351318359375)"><g id="-1.cu_1_sy_quoipel4tl39-stroke" fill="none" stroke-linecap="round" stroke-linejoin="round" stroke-miterlimit="4" stroke="#ffffff" stroke-width="2"><g><path d="M 110.815018 9.99999L 116.745316 81.163528L 10.000008 81.163528L 15.930303 9.99999L 110.815018 9.99999Z"></path></g></g></g><g id="g-root--1.cu_2_sy_quoipel4tl3a-stroke" data-item-order="-389684" transform="translate(300.7183532714844, 299.514892578125)"><g id="-1.cu_2_sy_quoipel4tl3a-stroke" fill="none" stroke-linecap="round" stroke-linejoin="round" stroke-miterlimit="4" stroke="#ffffff" stroke-width="2"><g><path d="M 122.675598 9.999997L 128.605896 81.163536L 9.999996 81.163536L 15.93029 9.999997L 122.675598 9.999997Z"></path></g></g></g><g id="g-root--1.cu_3_sy_quoipel4tl3b-stroke" data-item-order="-389680" transform="translate(295.77655029296875, 370.67822265625)"><g id="-1.cu_3_sy_quoipel4tl3b-stroke" fill="none" stroke-linecap="round" stroke-linejoin="round" stroke-miterlimit="4" stroke="#ffffff" stroke-width="2"><g><path d="M 133.547791 9.999995L 139.478088 81.163528L 26.802605 81.163528L 14.942016 69.30294L 9.999998 69.30294L 14.94191 9.999995L 133.547791 9.999995Z"></path></g></g></g><g id="g-root--1.cu_4_sy_mev0kyl4tlvk-stroke" data-item-order="-389676" transform="translate(324.4394836425781, 14.8603515625)"><g id="-1.cu_4_sy_mev0kyl4tlvk-stroke" fill="none" stroke-linecap="round" stroke-linejoin="round" stroke-miterlimit="4" stroke="#ffffff" stroke-width="2"><g><path d="M 81.163536 98.954826L 81.163536 51.512577L 626.75061 10L 626.75061 140.466461L 81.163536 98.954826ZM 10.000003 39.651501L 81.163536 39.651501L 81.163536 110.815033L 10.000003 110.815033L 10.000003 39.651501Z"></path></g></g></g><g id="g-root--1.cu_5_sy_mev0kyl4tlvl-stroke" data-item-order="-389672" transform="translate(324.4395446777344, 115.675537109375)"><g id="-1.cu_5_sy_mev0kyl4tlvl-stroke" fill="none" stroke-linecap="round" stroke-linejoin="round" stroke-miterlimit="4" stroke="#ffffff" stroke-width="2"><g><path d="M 9.999998 9.999997L 81.163536 9.999997L 81.163536 27.790886L 9.999998 27.790886L 9.999998 9.999997Z"></path></g></g></g><g id="g-root--1.cu_6_sy_mev0kyl4tlvm-stroke" data-item-order="-389669" transform="translate(312.5789489746094, 3)"><g id="-1.cu_6_sy_mev0kyl4tlvm-stroke" fill="none" stroke-linecap="round" stroke-linejoin="round" stroke-miterlimit="4" stroke="#32444a" stroke-width="2"><g><path d="M 104.88472 140.466492L 104.88472 122.675606L 10 122.675606L 10 140.466492M 45.581772 122.675606L 45.581772 140.466492M 21.86059 122.675606L 21.86059 140.466492M 69.302948 122.675606L 69.302948 140.466492M 93.024132 122.675606L 93.024132 140.466492M 57.44236 9.999999L 57.44236 27.790884"></path></g></g></g><g id="g-root--1.cu_7_sy_djuhf6l4tjij-stroke" data-item-order="-389668" transform="translate(306.6486511230469, 20.791015625)"><g id="-1.cu_7_sy_djuhf6l4tjij-stroke" fill="none" stroke-linecap="round" stroke-linejoin="round" stroke-miterlimit="4" stroke="#ffffff" stroke-width="2"><g><path d="M 15.930303 33.721184L 110.815018 33.721184L 63.372662 10.000003L 15.930303 33.721184ZM 15.930303 134.536194L 110.815018 134.536194L 104.884727 146.39679L 21.860598 146.39679L 15.930303 134.536194ZM 10.000008 122.675613L 116.745316 122.675613L 116.745316 134.536194L 10.000008 134.536194L 10.000008 122.675613Z"></path></g></g></g><g id="g-root--1.cu_8_sy_djuhf6l4tjik-stroke" data-item-order="-389665" transform="translate(3, 459.6328125)"><g id="-1.cu_8_sy_djuhf6l4tjik-stroke" fill="none" stroke-linecap="round" stroke-linejoin="round" stroke-miterlimit="4" stroke="#32444a" stroke-width="2"><g><path d="M 48.424656 15.315104C 52.746265 15.315104 57.097313 13.943771 60.073334 11.178425C 60.476009 10.804645 60.84922 10.419281 61.193077 9.999894C 61.546619 10.419281 61.919842 10.804645 62.312714 11.178425C 65.288734 13.932672 69.639801 15.315104 73.961395 15.315104C 78.283005 15.315104 82.634048 13.943771 85.610069 11.178425C 86.00296 10.804645 86.376274 10.419281 86.720024 9.999894C 87.07357 10.419281 87.446793 10.804645 87.839661 11.178425C 90.815681 13.932672 95.166748 15.315104 99.488358 15.315104C 103.809952 15.315104 108.161018 13.943771 111.137131 11.178425C 111.529907 10.804645 111.903221 10.419281 112.246994 9.999894C 112.600533 10.419281 112.97374 10.804645 113.366631 11.178425C 116.342636 13.932672 120.69371 15.315104 125.015289 15.315104C 129.336899 15.315104 133.688065 13.943771 136.663986 11.178425C 137.056854 10.804645 137.430069 10.419281 137.773926 9.999894C 138.127502 10.419281 138.500702 10.804645 138.893585 11.178425C 141.869583 13.932672 146.220657 15.315104 150.542267 15.315104C 154.863846 15.315104 159.214935 13.943771 162.190933 11.178425C 162.583817 10.804645 162.957138 10.419281 163.300903 9.999894C 163.654449 10.419281 164.027649 10.804645 164.420532 11.178425C 167.396561 13.932672 171.74762 15.315104 176.069229 15.315104C 180.390808 15.315104 184.741882 13.943771 187.71788 11.178425C 188.120651 10.804645 188.493866 10.419281 188.837631 9.999894C 189.181396 10.419281 189.554611 10.804645 189.947479 11.178425C 192.923508 13.932672 197.264786 15.315104 201.596176 15.315104C 205.927551 15.315104 210.268921 13.943771 213.244949 11.178425C 213.647598 10.804645 214.020844 10.419281 214.364578 9.999894C 214.708344 10.419281 215.081558 10.804645 215.474426 11.178425C 218.45047 13.932672 222.801514 15.315104 227.123123 15.315104C 231.444824 15.315104 235.795868 13.943771 238.771912 11.178425C 239.174545 10.804645 239.547791 10.419281 239.891525 9.999894C 240.245193 10.419281 240.618393 10.804645 241.011276 11.178425C 243.987305 13.932672 248.458038 15.323549 252.789551 15.323549C 257.111115 15.323549 261.841827 13.943771 264.817841 11.178425C 265.22052 10.804645 265.593719 10.419281 265.9375 9.999894C 266.291046 10.419281 266.664368 10.804645 267.057159 11.178425C 270.033142 13.932672 274.384308 15.315104 278.705902 15.315104C 283.027496 15.315104 287.378571 13.943771 290.354584 11.178425C 290.757263 10.804645 291.130463 10.419281 291.474243 9.999894C 291.827881 10.419281 292.20108 10.804645 292.593964 11.178425C 295.570007 13.932672 299.921051 15.315104 304.242645 15.315104C 308.56427 15.315104 312.915314 13.943771 315.891327 11.178425C 316.28421 10.804645 316.65744 10.419281 317.00119 9.999894C 317.354828 10.419281 317.728027 10.804645 318.120941 11.178425C 321.096954 13.932672 325.447998 15.315104 329.769592 15.315104C 334.091217 15.315104 338.442352 13.943771 341.418304 11.178425C 341.811157 10.804645 342.184479 10.419281 342.528229 9.999894C 342.881775 10.419281 343.254974 10.804645 343.647888 11.178425C 346.623901 13.932672 350.974945 15.315104 355.296539 15.315104C 359.618164 15.315104 363.96933 13.943771 366.945343 11.178425C 367.338226 10.804645 367.711426 10.419281 368.055206 9.999894C 368.408722 10.419281 368.781952 10.804645 369.174805 11.178425C 372.150879 13.932672 376.501892 15.315104 380.823578 15.315104C 385.145233 15.315104 389.496185 13.943771 392.472198 11.178425C 392.865112 10.804645 393.238403 10.419281 393.582123 9.999894C 393.935699 10.419281 394.308868 10.804645 394.701782 11.178425C 397.677795 13.932672 402.02887 15.315104 406.350464 15.315104C 410.672089 15.315104 415.023102 13.943771 417.999115 11.178425C 418.401917 10.804645 418.775146 10.419281 419.118896 9.999894C 419.462616 10.419281 419.835876 10.804645 420.22876 11.178425C 423.204773 13.932672 427.546021 15.315104 431.877441 15.315104C 436.208893 15.315104 440.55014 13.943771 443.526215 11.178425C 443.928894 10.804645 444.302063 10.419281 444.645813 9.999894C 444.989594 10.419281 445.362793 10.804645 445.755676 11.178425C 448.731689 13.932672 453.082764 15.315104 457.404358 15.315104C 461.725983 15.315104 466.077118 13.943771 469.053131 11.178425C 469.455811 10.804645 469.829041 10.419281 470.172791 9.999894C 470.526428 10.419281 470.899536 10.804645 471.29245 11.178425C 474.268433 13.932672 478.739044 15.323549 483.070374 15.323549C 487.392029 15.323549 492.122498 13.943771 495.098511 11.178425C 495.501282 10.804645 495.87442 10.419281 496.218262 9.999894C 496.571777 10.419281 496.945007 10.804645 497.33786 11.178425C 500.313934 13.932672 504.664948 15.315104 508.986572 15.315104C 513.308167 15.315104 517.659241 13.943771 520.635254 11.178425C 521.037903 10.804645 521.411194 10.419281 521.754944 9.999894C 522.108521 10.419281 522.481812 10.804645 522.874756 11.178425C 525.850769 13.932672 530.201843 15.315104 534.523376 15.315104C 538.84491 15.315104 543.196045 13.943771 546.172058 11.178425C 546.564941 10.804645 546.938232 10.419281 547.281921 9.999894C 547.635559 10.419281 548.008667 10.804645 548.401611 11.178425C 551.377625 13.932672 555.72876 15.315104 560.050354 15.315104C 564.371948 15.315104 568.723022 13.943771 571.699036 11.178425C 572.091797 10.804645 572.465149 10.419281 572.808899 9.999894C 573.162415 10.419281 573.535645 10.804645 573.92865 11.178425C 576.904663 13.932672 581.255615 15.315104 585.577271 15.315104C 589.898926 15.315104 594.249939 13.943771 597.226013 11.178425C 597.618835 10.804645 597.992126 10.419281 598.335815 9.999894C 598.689392 10.419281 599.062683 10.804645 599.455505 11.178425C 602.431519 13.932672 606.782654 15.315104 611.104248 15.315104C 615.425842 15.315104 619.776917 13.943771 622.75293 11.178425C 623.145874 10.804645 623.519165 10.419281 623.862793 9.999894C 624.216431 10.419281 624.589661 10.804645 624.982544 11.178425C 627.958496 13.932672 632.309631 15.315104 636.631226 15.315104C 640.95282 15.315104 645.303833 13.943771 648.279907 11.178425C 648.682617 10.804645 649.055908 10.419281 649.399658 9.999894C 649.743286 10.419281 650.116638 10.804645 650.509521 11.178425C 653.485535 13.932672 657.826721 15.315104 662.158203 15.315104C 666.489563 15.315104 670.830811 13.943771 673.806824 11.178425C 674.209534 10.804645 674.582825 10.419281 674.926636 9.999894C 675.270325 10.419281 675.643616 10.804645 676.036438 11.178425C 679.012512 13.932672 683.363647 15.315104 687.685242 15.315104C 692.006836 15.315104 696.357788 13.943771 699.333801 11.178425C 699.736572 10.804645 700.109802 10.419281 700.453552 9.999894C 700.80719 10.419281 701.180298 10.804645 701.573181 11.178425C 704.549194 13.932672 709.019775 15.315104 713.351257 15.315104M 48.424656 15.315104C 44.093166 15.315104 39.622719 13.932672 36.646698 11.178425C 36.253811 10.804645 35.8806 10.419281 35.526955 9.999894C 35.183201 10.419281 34.809978 10.804645 34.407318 11.178425C 31.431297 13.943771 27.080248 15.315104 22.758638 15.315104C 18.436939 15.315104 14.085876 13.932672 11.109855 11.178425C 10.716981 10.804645 10.343759 10.419281 10.000006 9.999894M 48.424656 15.315104L 48.424564 15.323549M 802.700439 9.999894C 802.356628 10.419281 801.983459 10.804645 801.590576 11.178425C 798.614563 13.943771 794.263489 15.315104 789.941895 15.315104C 785.6203 15.315104 781.269226 13.932672 778.293213 11.178425C 777.90033 10.804645 777.5271 10.419281 777.173584 9.999894C 776.829773 10.419281 776.456482 10.804645 776.063721 11.178425C 773.087708 13.943771 768.736572 15.315104 764.414917 15.315104C 760.093323 15.315104 755.742249 13.932672 752.766235 11.178425C 752.373352 10.804645 752.000183 10.419281 751.646606 9.999894C 751.302856 10.419281 750.929565 10.804645 750.536682 11.178425C 747.560669 13.943771 743.209595 15.315104 738.888 15.315104C 734.566345 15.315104 730.215332 13.932672 727.239258 11.178425C 726.846436 10.804645 726.473206 10.419281 726.119568 9.999894C 725.775818 10.419281 725.402588 10.804645 724.999939 11.178425C 722.023926 13.943771 717.672852 15.315104 713.351257 15.315104M 713.351257 15.315104L 713.351135 15.323549"></path></g></g></g><g id="g-root--1.cu_9_sy_djuhf6l4tjil-stroke" data-item-order="-389663" transform="translate(169.26348876953125, 489.2841796875)"><g id="-1.cu_9_sy_djuhf6l4tjil-stroke" fill="none" stroke-linecap="round" stroke-linejoin="round" stroke-miterlimit="4" stroke="#1eabda" stroke-width="2"><g><path d="M 48.42465 15.315325C 52.74625 15.315325 57.097309 13.943944 60.07333 11.178648C 60.475998 10.804642 60.849216 10.419371 61.193069 10C 61.546615 10.419371 61.919826 10.804642 62.312706 11.178648C 65.288723 13.932677 69.639782 15.315325 73.961391 15.315325C 78.282993 15.315325 82.634052 13.943944 85.610061 11.178648C 86.002945 10.804642 86.376258 10.419371 86.720024 10C 87.073562 10.419371 87.446785 10.804642 87.839668 11.178648C 90.815673 13.932677 95.16674 15.315325 99.488342 15.315325C 103.809944 15.315325 108.160995 13.943944 111.137115 11.178648C 111.529899 10.804642 111.903205 10.419371 112.246963 10C 112.600525 10.419371 112.973732 10.804642 113.366615 11.178648C 116.34262 13.932677 120.693687 15.315325 125.015289 15.315325C 129.336891 15.315325 133.688049 13.943944 136.663971 11.178648C 137.056846 10.804642 137.430061 10.419371 137.773925 10C 138.127464 10.419371 138.500679 10.804642 138.89357 11.178648C 141.869598 13.932677 146.220634 15.315325 150.542236 15.315325C 154.863845 15.315325 159.214904 13.943944 162.190933 11.178648C 162.583801 10.804642 162.957122 10.419371 163.300872 10C 163.654419 10.419371 164.027633 10.804642 164.420501 11.178648C 167.39653 13.932677 171.747589 15.315325 176.069198 15.315325C 180.390792 15.315325 184.741867 13.943944 187.71788 11.178648C 188.120636 10.804642 188.49385 10.419371 188.837616 10C 189.181366 10.419371 189.55458 10.804642 189.947479 11.178648C 192.923477 13.932677 197.26474 15.315325 201.596161 15.315325C 205.92752 15.315325 210.268905 13.943944 213.244934 11.178648C 213.647598 10.804642 214.020813 10.419371 214.364578 10C 214.708328 10.419371 215.081543 10.804642 215.474441 11.178648C 218.450454 13.932677 222.801498 15.315325 227.123108 15.315325C 231.444793 15.315325 235.795852 13.943944 238.771881 11.178648C 239.174545 10.804642 239.54776 10.419371 239.891525 10C 240.245163 10.419371 240.618377 10.804642 241.011245 11.178648C 243.987289 13.932677 248.458023 15.323628 252.789505 15.323628C 257.111114 15.323628 261.841796 13.943944 264.81781 11.178648C 265.220504 10.804642 265.593673 10.419371 265.937469 10C 266.29103 10.419371 266.664337 10.804642 267.057098 11.178648C 270.033111 13.932677 274.384323 15.315325 278.705902 15.315325C 283.027496 15.315325 287.37854 13.943944 290.354583 11.178648C 290.757232 10.804642 291.130462 10.419371 291.474212 10C 291.82785 10.419371 292.20108 10.804642 292.593933 11.178648C 295.569976 13.932677 299.92099 15.315325 304.242614 15.315325C 308.564239 15.315325 312.915283 13.943944 315.891296 11.178648C 316.284179 10.804642 316.657409 10.419371 317.001159 10C 317.354797 10.419371 317.728027 10.804642 318.12091 11.178648C 321.096893 13.932677 325.447967 15.315325 329.769561 15.315325C 334.091186 15.315325 338.442321 13.943944 341.418274 11.178648C 341.811126 10.804642 342.184448 10.419371 342.528228 10C 342.881744 10.419371 343.254974 10.804642 343.647857 11.178648C 346.62387 13.932677 350.974914 15.315325 355.296508 15.315325C 359.618133 15.315325 363.969299 13.943944 366.945312 11.178648C 367.338165 10.804642 367.711395 10.419371 368.055175 10C 368.408691 10.419371 368.781952 10.804642 369.174804 11.178648C 372.150817 13.932677 376.501892 15.315325 380.823577 15.315325C 385.145172 15.315325 389.496124 13.943944 392.472168 11.178648C 392.865051 10.804642 393.238342 10.419371 393.582122 10C 393.935638 10.419371 394.308868 10.804642 394.701751 11.178648C 397.677765 13.932677 402.028839 15.315325 406.350402 15.315325C 410.671997 15.315325 415.023132 13.943944 417.999115 11.178648C 418.401886 10.804642 418.775085 10.419371 419.118866 10C 419.462616 10.419371 419.835815 10.804642 420.228698 11.178648C 423.204742 13.932677 427.54599 15.315325 431.87738 15.315325C 436.208831 15.315325 440.55014 13.943944 443.526153 11.178648C 443.928833 10.804642 444.302032 10.419371 444.645813 10C 444.989563 10.419371 445.362762 10.804642 445.755645 11.178648C 448.731689 13.932677 453.082763 15.315325 457.404358 15.315325C 461.725952 15.315325 466.077087 13.943944 469.053131 11.178648C 469.45578 10.804642 469.828979 10.419371 470.17276 10C 470.526428 10.419371 470.899505 10.804642 471.292389 11.178648C 474.268402 13.932677 478.738952 15.323628 483.070312 15.323628C 487.391967 15.323628 492.122467 13.943944 495.09851 11.178648C 495.501251 10.804642 495.874359 10.419371 496.218231 10C 496.571716 10.419371 496.944946 10.804642 497.337829 11.178648C 500.313873 13.932677 504.664886 15.315325 508.986511 15.315325C 513.308105 15.315325 517.659179 13.943944 520.635223 11.178648C 521.037811 10.804642 521.411193 10.419371 521.754943 10C 522.108459 10.419371 522.481842 10.804642 522.874664 11.178648C 525.850708 13.932677 530.20169 15.315325 534.523376 15.315325C 538.844848 15.315325 543.196045 13.943944 546.171936 11.178648C 546.564941 10.804642 546.93811 10.419371 547.28186 10C 547.635559 10.419371 548.008667 10.804642 548.401489 11.178648C 551.377563 13.932677 555.728698 15.315325 560.050232 15.315325C 564.371887 15.315325 568.722961 13.943944 571.698974 11.178648C 572.091735 10.804642 572.465026 10.419371 572.808838 10C 573.162414 10.419371 573.535583 10.804642 573.928527 11.178648C 576.904602 13.932677 581.255554 15.315325 585.57727 15.315325C 589.898864 15.315325 594.25 13.943944 597.225891 11.178648C 597.618835 10.804642 597.992004 10.419371 598.335754 10C 598.689331 10.419371 599.062622 10.804642 599.455444 11.178648C 602.431457 13.932677 606.782592 15.315325 611.104187 15.315325C 615.425781 15.315325 619.776794 13.943944 622.752929 11.178648C 623.145752 10.804642 623.519165 10.419371 623.862671 10C 624.216369 10.419371 624.589599 10.804642 624.982483 11.178648C 627.958313 13.932677 632.30957 15.315325 636.631164 15.315325C 640.952697 15.315325 645.303833 13.943944 648.279785 11.178648C 648.682495 10.804642 649.055786 10.419371 649.399597 10C 649.743225 10.419371 650.116516 10.804642 650.509399 11.178648C 653.485412 13.932677 657.826599 15.315325 662.158142 15.315325C 666.489502 15.315325 670.83081 13.943944 673.806823 11.178648C 674.209472 10.804642 674.582763 10.419371 674.926452 10C 675.270324 10.419371 675.643493 10.804642 676.036377 11.178648C 679.01239 13.932677 683.363525 15.315325 687.68518 15.315325C 692.006775 15.315325 696.357727 13.943944 699.333679 11.178648C 699.736511 10.804642 700.10968 10.419371 700.453491 10C 700.807129 10.419371 701.180175 10.804642 701.57312 11.178648C 704.549133 13.932677 709.019592 15.315325 713.351135 15.315325M 48.42465 15.315325C 44.09316 15.315325 39.622709 13.932677 36.646692 11.178648C 36.253812 10.804642 35.880594 10.419371 35.526952 10C 35.183192 10.419371 34.809982 10.804642 34.407314 11.178648C 31.431296 13.943944 27.080237 15.315325 22.758635 15.315325C 18.436931 15.315325 14.085871 13.932677 11.109853 11.178648C 10.716974 10.804642 10.343759 10.419371 10 10M 48.42465 15.315325L 48.424551 15.323628M 802.700317 10C 802.356628 10.419371 801.983337 10.804642 801.590515 11.178648C 798.614441 13.943944 794.263427 15.315325 789.941772 15.315325C 785.6203 15.315325 781.269226 13.932677 778.29309 11.178648C 777.900207 10.804642 777.527038 10.419371 777.173462 10C 776.829773 10.419371 776.456421 10.804642 776.063659 11.178648C 773.087646 13.943944 768.73645 15.315325 764.414856 15.315325C 760.0932 15.315325 755.742187 13.932677 752.766235 11.178648C 752.373291 10.804642 752.000122 10.419371 751.646606 10C 751.302734 10.419371 750.929504 10.804642 750.536621 11.178648C 747.560546 13.943944 743.209472 15.315325 738.887878 15.315325C 734.566284 15.315325 730.215271 13.932677 727.239196 11.178648C 726.846374 10.804642 726.473144 10.419371 726.119567 10C 725.775817 10.419371 725.402526 10.804642 724.999878 11.178648C 722.023864 13.943944 717.67279 15.315325 713.351135 15.315325M 713.351135 15.315325L 713.351013 15.323628"></path></g></g></g><g id="g-root-tx_document_qwjxyql4tk3u-stroke" data-item-order="0" transform="translate(490.48779296875, 38.093505859375)"></g><g id="g-root-uplo_v47yk2lem51m-stroke" data-item-order="0" transform="translate(336.02130126953125, 55.89013671875)"><g id="uplo_v47yk2lem51m-stroke" fill="none" stroke-linecap="round" stroke-linejoin="round" stroke-miterlimit="4" stroke="#ffffff" stroke-width="2"><g><path d="M 28.799999 45.858002L 15.226 45.858002C 12.892368 45.859104 11 43.967632 11 41.633999L 11 15.226C 11 12.892044 12.892044 11 15.226 11L 46.916 11C 49.249172 11.001104 51.139999 12.892825 51.139999 15.226L 51.139999 28.958M 11 19.251999L 51.139999 19.251999M 11 36.785999L 30.488001 36.785999M 11 28.032L 51.139999 28.032M 27.396 19.251999L 27.396 45.858002M 39.150002 19.251999L 39.150002 28.958M 44.734001 57C 51.509686 56.999996 57.002365 51.507019 57.001999 44.731331C 57.001629 37.955643 51.508354 32.463261 44.732666 32.463997C 37.956974 32.464737 32.464893 37.958305 32.465996 44.733997C 32.466 51.509106 37.958893 57.001102 44.733997 56.999996ZM 44.734001 50.866001L 44.734001 38.599998M 44.734001 38.599998L 40.318001 43.200001M 44.734001 38.599998L 49.150002 43.200001"></path></g></g></g><g id="g-root-map_ddkf5elehyj0-stroke" data-item-order="0" transform="translate(336.02130126953125, 168.565673828125)"><g id="map_ddkf5elehyj0-stroke" fill="none" stroke-linecap="round" stroke-linejoin="round" stroke-miterlimit="4" stroke="#ffffff" stroke-width="2"><g><path d="M 44 21C 44 26.521999 34 35.285999 34 35.285999C 34 35.285999 24 26.521999 24 21C 24 15.477153 28.477154 11 34 11C 39.52285 11 44 15.477153 44 21ZM 48 19L 51 19C 52.104568 19 53 19.895432 53 21L 53 55C 53 56.104568 52.104568 57 51 57L 17 57C 15.895431 57 15 56.104568 15 55L 15 21C 15 19.895432 15.895431 19 17 19L 20 19"></path></g></g></g><g id="g-root-tx_enhanceg_147dz8yl4tlop-stroke" data-item-order="0" transform="translate(490.48779296875, 180.76953125)"></g><g id="g-root-page_1qd78aalef66j-stroke" data-item-order="0" transform="translate(336.02130126953125, 239.729248046875)"><g id="page_1qd78aalef66j-stroke" fill="none" stroke-linecap="round" stroke-linejoin="round" stroke-miterlimit="4" stroke="#ffffff" stroke-width="2"><g><path d="M 11 17.132L 11 13C 11 11.895431 11.895431 11 13 11L 17.133999 11M 17.133999 57L 13 57C 11.895431 57 11 56.104568 11 55L 11 50.866001M 11 24.798L 11 30.931999M 11 37.066002L 11 43.198002M 57 24.798L 57 30.931999M 24.799999 10.998L 30.934 10.998M 37.066002 10.998L 43.200001 10.998M 50.866001 11L 55 11C 56.104568 11 57 11.895431 57 13L 57 17.132M 30.934 56.998001L 24.799999 56.998001M 26.334 38.598C 26.332422 45.37344 31.824558 50.866856 38.599998 50.866856C 45.375439 50.866856 50.867577 45.37344 50.865997 38.598C 50.867577 31.822559 45.375439 26.329144 38.599998 26.329144C 31.824558 26.329144 26.332422 31.822559 26.334 38.598ZM 34.599998 38.598L 42.599998 38.598M 47.273998 47.271999L 57 56.998001"></path></g></g></g><g id="g-root-tx_improved_1hiuhmal4tk3s-stroke" data-item-order="0" transform="translate(490.48779296875, 251.93310546875)"></g><g id="g-root-buil_v9u8c2ledreo-stroke" data-item-order="0" transform="translate(336.02130126953125, 310.892822265625)"><g id="buil_v9u8c2ledreo-stroke" fill="none" stroke-linecap="round" stroke-linejoin="round" stroke-miterlimit="4" stroke="#ffffff" stroke-width="2"><g><path d="M 12 29L 32 29C 32 29 33 29 33 30L 33 56C 33 56 33 57 32 57L 12 57C 12 57 11 57 11 56L 11 30C 11 30 11 29 12 29M 29 29L 29 18C 29 17.447716 28.552284 17 28 17L 16 17C 15.447716 17 15 17.447716 15 18L 15 29M 21 17L 21 11M 40 23L 56 23C 56 23 57 23 57 24L 57 56C 57 56 57 57 56 57L 40 57C 40 57 39 57 39 56L 39 24C 39 24 39 23 40 23M 43 29L 53 29M 43 35L 53 35M 43 41L 53 41M 43 47L 53 47M 15 35L 29 35M 15 41L 29 41M 15 47L 29 47M 19 22.966L 25 22.966M 23 57L 23 52C 23 51.447716 22.552284 51 22 51L 20 51C 19.447716 51 19 51.447716 19 52L 19 57M 51 57L 51 52C 51 51.447716 50.552284 51 50 51L 48 51C 47.447716 51 47 51.447716 47 52L 47 57"></path></g></g></g><g id="g-root-tx_supportp_1utoiwil4tlon-stroke" data-item-order="0" transform="translate(490.48779296875, 311.0966796875)"></g><g id="g-root-chec_dg2bhuledpfk-stroke" data-item-order="0" transform="translate(336.02130126953125, 382.056396484375)"><g id="chec_dg2bhuledpfk-stroke" fill="none" stroke-linecap="round" stroke-linejoin="round" stroke-miterlimit="4" stroke="#ffffff" stroke-width="2"><g><path d="M 19 27L 38 27M 19 33L 31 33M 19 21L 33 21M 19 39L 27 39M 19 45L 27 45M 31 57L 13 57C 11.895431 57 11 56.104568 11 55L 11 13C 11 11.895431 11.895431 11 13 11L 39.585999 11C 40.11639 11.000113 40.625015 11.210901 41 11.586L 48.414001 19C 48.789101 19.374985 48.999886 19.88361 49 20.414L 49 27M 33 45C 33 51.627419 38.372581 57 45 57C 51.627419 57 57 51.627419 57 45C 57 38.372581 51.627419 33 45 33C 38.372581 33 33 38.372581 33 45ZM 50.348 41.512001L 44.537998 49.257999C 44.276516 49.605347 43.877514 49.822548 43.443855 49.853607C 43.010197 49.884663 42.584312 49.72654 42.276001 49.419998L 39.276001 46.419998"></path></g></g></g><g id="g-root-tx_publishw_940zaql4tkau-stroke" data-item-order="0" transform="translate(490.48779296875, 394.260009765625)"></g></g></g></svg>
