<?xml version="1.0" encoding="utf-8" standalone="yes"?>
<!DOCTYPE svg PUBLIC "-//W3C//DTD SVG 1.1//EN" "http://www.w3.org/Graphics/SVG/1.1/DTD/svg11.dtd">
<svg width="758" height="458" viewBox="0 0 758 458" style="fill:none;stroke:none;fill-rule:evenodd;clip-rule:evenodd;stroke-linecap:round;stroke-linejoin:round;stroke-miterlimit:1.5;" version="1.1" xmlns="http://www.w3.org/2000/svg" xmlns:xlink="http://www.w3.org/1999/xlink"><style id="fontImports">@import url("https://fonts.googleapis.com/css2?family=Roboto:wght@400;700&amp;display=block");</style><g id="items" style="isolation: isolate"><g id="blend" style="mix-blend-mode:normal"><g id="g-root--1.cu_sy_v5h64ykuljpi-fill" data-item-order="-70842" transform="translate(327, 111)"></g><g id="g-root-3.line_sy_m9u5w2kulki7-fill" data-item-order="-70835" transform="translate(243.109375, 279)"></g><g id="g-root-2.line_sy_qpno0ikulkhs-fill" data-item-order="-70829" transform="translate(243, 255)"></g><g id="g-root-1.line_sy_qpno0ikulkht-fill" data-item-order="-70823" transform="translate(243, 171)"></g><g id="g-root-tx_spatiald_v9uhqqkusjkc-fill" data-item-order="0" transform="translate(177, 39)"><g id="tx_spatiald_v9uhqqkusjkc-fill" stroke="none" fill="#333333"><g><text style="font-style: normal; font-variant-caps: normal; font-weight: normal; font-stretch: normal; font-size: 20px; line-height: normal; font-family: Calibri, sans-serif; font-size-adjust: none; font-kerning: auto; font-variant-alternates: normal; font-variant-ligatures: normal; font-variant-numeric: normal; font-variant-east-asian: normal; font-variant-position: normal; font-variant-emoji: normal; font-feature-settings: normal; font-optical-sizing: auto; font-variation-settings: normal; white-space: pre;"><tspan x="15.25" y="34" dominant-baseline="ideographic">Spatial Data's Impact on Housing Analysis</tspan></text></g></g></g><g id="g-root-tx_refinedh_18koj0ykusl57-fill" data-item-order="0" transform="translate(15, 147)"><g id="tx_refinedh_18koj0ykusl57-fill" stroke="none" fill="#333333"><g><text style="font-style: normal; font-variant-caps: normal; font-weight: normal; font-stretch: normal; font-size: 20px; line-height: normal; font-family: Calibri, sans-serif; font-size-adjust: none; font-kerning: auto; font-variant-alternates: normal; font-variant-ligatures: normal; font-variant-numeric: normal; font-variant-east-asian: normal; font-variant-position: normal; font-variant-emoji: normal; font-feature-settings: normal; font-optical-sizing: auto; font-variation-settings: normal; white-space: pre;"><tspan x="18" y="34" dominant-baseline="ideographic">Refined Hedonic </tspan><tspan x="98" y="58" dominant-baseline="ideographic">Models</tspan></text></g></g></g><g id="g-root-map_hwik42kusm4v-fill" data-item-order="0" transform="translate(183, 147)"></g><g id="g-root-tx_repeatsa_1lw51eakusjka-fill" data-item-order="0" transform="translate(39, 231)"><g id="tx_repeatsa_1lw51eakusjka-fill" stroke="none" fill="#333333"><g><text style="font-style: normal; font-variant-caps: normal; font-weight: normal; font-stretch: normal; font-size: 20px; line-height: normal; font-family: Calibri, sans-serif; font-size-adjust: none; font-kerning: auto; font-variant-alternates: normal; font-variant-ligatures: normal; font-variant-numeric: normal; font-variant-east-asian: normal; font-variant-position: normal; font-variant-emoji: normal; font-feature-settings: normal; font-optical-sizing: auto; font-variation-settings: normal; white-space: pre;"><tspan x="23" y="34" dominant-baseline="ideographic">Repeat-Sales </tspan><tspan x="76" y="58" dominant-baseline="ideographic">Indices</tspan></text></g></g></g><g id="g-root-slid_dhbj2qkuprew-fill" data-item-order="0" transform="translate(183, 231)"></g><g id="g-root-1_8x4pcikumy2r-fill" data-item-order="0" transform="translate(507, 231)"></g><g id="g-root-tx_enhanced_mcc28ikusm4g-fill" data-item-order="0" transform="translate(567, 219)"><g id="tx_enhanced_mcc28ikusm4g-fill" stroke="none" fill="#333333"><g><text style="font-style: normal; font-variant-caps: normal; font-weight: normal; font-stretch: normal; font-size: 20px; line-height: normal; font-family: Calibri, sans-serif; font-size-adjust: none; font-kerning: auto; font-variant-alternates: normal; font-variant-ligatures: normal; font-variant-numeric: normal; font-variant-east-asian: normal; font-variant-position: normal; font-variant-emoji: normal; font-feature-settings: normal; font-optical-sizing: auto; font-variation-settings: normal; white-space: pre;"><tspan x="12" y="34" dominant-baseline="ideographic">Enhanced </tspan><tspan x="12" y="58" dominant-baseline="ideographic">Housing Market </tspan><tspan x="12" y="82" dominant-baseline="ideographic">Analysis</tspan></text></g></g></g><g id="g-root-tx_improved_5v0pekuslc9-fill" data-item-order="0" transform="translate(15, 315)"><g id="tx_improved_5v0pekuslc9-fill" stroke="none" fill="#333333"><g><text style="font-style: normal; font-variant-caps: normal; font-weight: normal; font-stretch: normal; font-size: 20px; line-height: normal; font-family: Calibri, sans-serif; font-size-adjust: none; font-kerning: auto; font-variant-alternates: normal; font-variant-ligatures: normal; font-variant-numeric: normal; font-variant-east-asian: normal; font-variant-position: normal; font-variant-emoji: normal; font-feature-settings: normal; font-optical-sizing: auto; font-variation-settings: normal; white-space: pre;"><tspan x="22" y="34" dominant-baseline="ideographic">Improved Policy </tspan><tspan x="93" y="58" dominant-baseline="ideographic">Insights</tspan></text></g></g></g><g id="g-root-sear_1q6yqtukuodmu-fill" data-item-order="0" transform="translate(183, 315)"></g><g id="g-root--1.cu_sy_v5h64ykuljpi-stroke" data-item-order="-70842" transform="translate(327, 111)"><g id="-1.cu_sy_v5h64ykuljpi-stroke" fill="none" stroke-linecap="round" stroke-linejoin="round" stroke-miterlimit="4" stroke="#484848" stroke-width="2"><g><path d="M 65.766602 298C 80.754802 298 106.000002 233.529 106.000002 154C 106.000002 74.471 80.754802 10 65.766602 10C 80.775202 10.0075 92.941702 74.6668 92.941702 154C 92.941702 233.3332 80.775202 297.9925 65.766602 298ZM 65.765897 298C 80.774597 297.9925 92.941097 233.3332 92.941097 154C 92.941097 74.6668 80.774597 10.0075 65.765897 10L 51.957397 10C 66.060697 15.1659 77.199297 77.8539 77.199297 154C 77.199297 230.1462 65.382597 292.8341 51.279297 298L 65.765897 298ZM 77.2 154C 77.2 230.1462 65.3833 292.8341 51.28 298L 50.0615 298C 35.0734 298 10 233.529 10 154C 10 74.471 35.0734 10 50.0615 10C 50.6991 10 51.9581 10 51.9581 10C 66.0614 15.1659 77.2 77.8539 77.2 154Z"></path></g></g></g><g id="g-root-3.line_sy_m9u5w2kulki7-stroke" data-item-order="-70835" transform="translate(243.109375, 279)"><g id="3.line_sy_m9u5w2kulki7-stroke" fill="none" stroke-linecap="round" stroke-linejoin="round" stroke-miterlimit="4" stroke="#1eabda" stroke-width="2"><g><path d="M 254.08061 10.859985L 129.89061 69.999985L 10.00061 69.999985"></path><path d="M 251.50061 19.259985L 254.50061 10.659985L 245.90061 7.559985" stroke-dasharray="none"></path></g></g></g><g id="g-root-2.line_sy_qpno0ikulkhs-stroke" data-item-order="-70829" transform="translate(243, 255)"><g id="2.line_sy_qpno0ikulkhs-stroke" fill="none" stroke-linecap="round" stroke-linejoin="round" stroke-miterlimit="4" stroke="#92bd39" stroke-width="2"><g><path d="M 248 10L 130 10L 10 10"></path><path d="M 242 16.5L 248.5 10L 242 3.5" stroke-dasharray="none"></path></g></g></g><g id="g-root-1.line_sy_qpno0ikulkht-stroke" data-item-order="-70823" transform="translate(243, 171)"><g id="1.line_sy_qpno0ikulkht-stroke" fill="none" stroke-linecap="round" stroke-linejoin="round" stroke-miterlimit="4" stroke="#3cc583" stroke-width="2"><g><path d="M 254.19 69.14L 130 10L 10 10"></path><path d="M 246 72.4L 254.6 69.4L 251.6 60.7" stroke-dasharray="none"></path></g></g></g><g id="g-root-tx_spatiald_v9uhqqkusjkc-stroke" data-item-order="0" transform="translate(177, 39)"></g><g id="g-root-tx_refinedh_18koj0ykusl57-stroke" data-item-order="0" transform="translate(15, 147)"></g><g id="g-root-map_hwik42kusm4v-stroke" data-item-order="0" transform="translate(183, 147)"><g id="map_hwik42kusm4v-stroke" fill="none" stroke-linecap="round" stroke-linejoin="round" stroke-miterlimit="4" stroke="#3cc583" stroke-width="2"><g><path d="M 15 57L 15 21M 11 53L 15 57L 19 53M 19 25L 15 21L 11 25M 21 15L 57 15M 25 11L 21 15L 25 19M 53 19L 57 15L 53 11M 25 25L 57 25L 57 57L 25 57ZM 49 57L 49 48C 49 47.447716 49.447716 47 50 47L 52 47M 57 41L 49 41M 57 35L 49 35M 33 25L 33 34C 33 34.552284 33.447716 35 34 35L 42 35C 42.552284 35 43 34.552284 43 34L 43 25M 31 49L 31 42C 31 41.447716 30.552284 41 30 41L 25 41M 37 57L 37 49M 43 57L 43 44C 43 43.447716 42.552284 43 42 43L 37 43"></path></g></g></g><g id="g-root-tx_repeatsa_1lw51eakusjka-stroke" data-item-order="0" transform="translate(39, 231)"></g><g id="g-root-slid_dhbj2qkuprew-stroke" data-item-order="0" transform="translate(183, 231)"><g id="slid_dhbj2qkuprew-stroke" fill="none" stroke-linecap="round" stroke-linejoin="round" stroke-miterlimit="4" stroke="#92bd39" stroke-width="2"><g><path d="M 31 30C 31 30 28 23 22 23C 15.924868 23 11 27.924868 11 34C 11 40.075134 15.924868 45 22 45C 32 45 36 23 46 23C 51.290543 22.895065 55.906086 26.571905 56.986439 31.752031C 58.066792 36.932156 55.305763 42.147434 50.414326 44.166023C 45.522892 46.184612 39.88736 44.434414 37 40M 24.049999 28.684L 31 29.997999L 32.307999 23.048"></path></g></g></g><g id="g-root-1_8x4pcikumy2r-stroke" data-item-order="0" transform="translate(507, 231)"><g id="1_8x4pcikumy2r-stroke" fill="none" stroke-linecap="round" stroke-linejoin="round" stroke-miterlimit="4" stroke="#484848" stroke-width="2"><g><path d="M 29 24C 29 23.447716 28.552284 23 28 23L 12 23C 11.447716 23 11 23.447716 11 24L 11 56C 11 56.552284 11.447716 57 12 57L 29 57ZM 13 23L 13 18C 13 17.447716 13.447716 17 14 17L 26 17C 26.552284 17 27 17.447716 27 18L 27 23M 19 17L 19 11M 57 56C 57 56.552284 56.552284 57 56 57L 43 57L 43 30C 43 29.447716 43.447716 29 44 29L 56 29C 56.552284 29 57 29.447716 57 30ZM 45 29L 45 26C 45 25.447716 45.447716 25 46 25L 54 25C 54.552284 25 55 25.447716 55 26L 55 29M 29 35L 43 35M 29 57L 43 57M 15 29L 25 29M 15 35L 25 35M 15 41L 25 41M 47 35L 53 35M 47 41L 53 41M 15 47L 25 47M 47 47L 53 47M 33 41L 39 41M 33 47L 39 47M 21 57L 21 52C 21 51.447716 20.552284 51 20 51L 18 51C 17.447716 51 17 51.447716 17 52L 17 57M 49 57L 49 52C 49 51.447716 49.447716 51 50 51L 52 51C 52.552284 51 53 51.447716 53 52L 53 57"></path></g></g></g><g id="g-root-tx_enhanced_mcc28ikusm4g-stroke" data-item-order="0" transform="translate(567, 219)"></g><g id="g-root-tx_improved_5v0pekuslc9-stroke" data-item-order="0" transform="translate(15, 315)"></g><g id="g-root-sear_1q6yqtukuodmu-stroke" data-item-order="0" transform="translate(183, 315)"><g id="sear_1q6yqtukuodmu-stroke" fill="none" stroke-linecap="round" stroke-linejoin="round" stroke-miterlimit="4" stroke="#1eabda" stroke-width="2"><g><path d="M 25 20.779999L 25 52.779999M 39 31L 39 11M 31 48.720001L 25.58 52.580002C 25.237045 52.840019 24.762951 52.840019 24.419998 52.579998L 11.42 43.299999C 11.1575 43.109066 11.001551 42.804592 11 42.48L 11 12C 10.993511 11.626602 11.204156 11.28333 11.54 11.12C 11.858075 10.920883 12.261925 10.920883 12.58 11.12L 25 20.779999L 38.419998 11.18C 38.769028 10.938729 39.230972 10.938729 39.580002 11.18L 52.580002 20.48C 52.841915 20.662369 52.998619 20.960854 53 21.279999L 53 33M 53 44C 53 48.970562 48.970562 53 44 53C 39.029438 53 35 48.970562 35 44C 35 39.029438 39.029438 35 44 35C 48.970562 35 53 39.029438 53 44ZM 50.360001 50.360001L 57 57"></path></g></g></g></g></g></svg>
